<svg xmlns="http://www.w3.org/2000/svg" xmlns:xlink="http://www.w3.org/1999/xlink" width="500" zoomAndPan="magnify" viewBox="0 0 375 374.999991" height="500" preserveAspectRatio="xMidYMid meet" version="1.0"><defs><g/><clipPath id="id1"><path d="M 76.957031 22.53125 L 298.207031 22.53125 L 298.207031 352.53125 L 76.957031 352.53125 Z M 76.957031 22.53125 " clip-rule="nonzero"/></clipPath><clipPath id="id2"><path d="M 103.433594 49.535156 L 272.183594 49.535156 L 272.183594 171.785156 L 103.433594 171.785156 Z M 103.433594 49.535156 " clip-rule="nonzero"/></clipPath></defs><g clip-path="url(#id1)"><path fill="#194045" d="M 298.070312 344.226562 C 298.070312 348.808594 294.363281 352.523438 289.78125 352.523438 L 85.269531 352.523438 C 80.695312 352.523438 76.984375 348.808594 76.984375 344.226562 L 76.984375 30.839844 C 76.984375 26.253906 80.695312 22.539062 85.269531 22.539062 L 289.78125 22.539062 C 294.363281 22.539062 298.070312 26.253906 298.070312 30.839844 L 298.070312 344.226562 " fill-opacity="1" fill-rule="nonzero"/></g><path fill="#40aeb3" d="M 295.136719 341.507812 C 295.136719 345.972656 291.527344 349.582031 287.070312 349.582031 L 87.988281 349.582031 C 83.535156 349.582031 79.921875 345.972656 79.921875 341.507812 L 79.921875 33.554688 C 79.921875 29.097656 83.535156 25.480469 87.988281 25.480469 L 287.070312 25.480469 C 291.527344 25.480469 295.136719 29.097656 295.136719 33.554688 L 295.136719 341.507812 " fill-opacity="1" fill-rule="nonzero"/><path fill="#33888e" d="M 238.152344 196.085938 C 232.585938 196.085938 228.074219 200.601562 228.074219 206.171875 C 228.074219 211.742188 232.585938 216.257812 238.152344 216.257812 C 243.714844 216.257812 248.226562 211.742188 248.226562 206.171875 C 248.226562 200.601562 243.714844 196.085938 238.152344 196.085938 " fill-opacity="1" fill-rule="nonzero"/><path fill="#10272c" d="M 238.152344 197.628906 C 233.4375 197.628906 229.617188 201.457031 229.617188 206.171875 C 229.617188 210.890625 233.4375 214.714844 238.152344 214.714844 C 242.863281 214.714844 246.683594 210.890625 246.683594 206.171875 C 246.683594 201.457031 242.863281 197.628906 238.152344 197.628906 " fill-opacity="1" fill-rule="nonzero"/><path fill="#40aeb3" d="M 230.136719 206.25 C 230.136719 210.652344 233.699219 214.21875 238.089844 214.21875 C 242.488281 214.21875 246.046875 210.652344 246.046875 206.25 C 246.046875 201.851562 242.488281 198.285156 238.089844 198.285156 C 233.699219 198.285156 230.136719 201.851562 230.136719 206.25 " fill-opacity="1" fill-rule="nonzero"/><path fill="#e9832b" d="M 230.617188 206.25 C 230.617188 210.390625 233.964844 213.734375 238.089844 213.734375 C 242.214844 213.734375 245.566406 210.390625 245.566406 206.25 C 245.566406 202.121094 242.214844 198.769531 238.089844 198.769531 C 233.964844 198.769531 230.617188 202.121094 230.617188 206.25 " fill-opacity="1" fill-rule="nonzero"/><path fill="#e8a527" d="M 242.558594 211.8125 C 245.535156 209.261719 245.890625 204.773438 243.335938 201.785156 C 240.789062 198.8125 236.308594 198.460938 233.328125 201.011719 " fill-opacity="1" fill-rule="nonzero"/><path fill="#33888e" d="M 212.839844 196.085938 C 207.277344 196.085938 202.761719 200.601562 202.761719 206.171875 C 202.761719 211.742188 207.277344 216.257812 212.839844 216.257812 C 218.402344 216.257812 222.914062 211.742188 222.914062 206.171875 C 222.914062 200.601562 218.402344 196.085938 212.839844 196.085938 " fill-opacity="1" fill-rule="nonzero"/><path fill="#10272c" d="M 212.839844 197.628906 C 208.125 197.628906 204.308594 201.457031 204.308594 206.171875 C 204.308594 210.890625 208.125 214.714844 212.839844 214.714844 C 217.554688 214.714844 221.371094 210.890625 221.371094 206.171875 C 221.371094 201.457031 217.554688 197.628906 212.839844 197.628906 " fill-opacity="1" fill-rule="nonzero"/><path fill="#40aeb3" d="M 204.824219 206.25 C 204.824219 210.652344 208.390625 214.21875 212.78125 214.21875 C 217.179688 214.21875 220.738281 210.652344 220.738281 206.25 C 220.738281 201.851562 217.179688 198.285156 212.78125 198.285156 C 208.390625 198.285156 204.824219 201.851562 204.824219 206.25 " fill-opacity="1" fill-rule="nonzero"/><path fill="#ce244a" d="M 205.304688 206.25 C 205.304688 210.390625 208.652344 213.734375 212.78125 213.734375 C 216.90625 213.734375 220.253906 210.390625 220.253906 206.25 C 220.253906 202.121094 216.90625 198.769531 212.78125 198.769531 C 208.652344 198.769531 205.304688 202.121094 205.304688 206.25 " fill-opacity="1" fill-rule="nonzero"/><path fill="#ce406c" d="M 217.25 211.8125 C 220.230469 209.261719 220.578125 204.773438 218.027344 201.785156 C 215.476562 198.8125 210.996094 198.460938 208.015625 201.011719 " fill-opacity="1" fill-rule="nonzero"/><path fill="#33888e" d="M 187.53125 196.085938 C 181.964844 196.085938 177.449219 200.601562 177.449219 206.171875 C 177.449219 211.742188 181.964844 216.257812 187.53125 216.257812 C 193.09375 216.257812 197.601562 211.742188 197.601562 206.171875 C 197.601562 200.601562 193.09375 196.085938 187.53125 196.085938 " fill-opacity="1" fill-rule="nonzero"/><path fill="#10272c" d="M 187.53125 197.628906 C 182.816406 197.628906 178.996094 201.457031 178.996094 206.171875 C 178.996094 210.890625 182.816406 214.714844 187.53125 214.714844 C 192.242188 214.714844 196.066406 210.890625 196.066406 206.171875 C 196.066406 201.457031 192.242188 197.628906 187.53125 197.628906 " fill-opacity="1" fill-rule="nonzero"/><path fill="#40aeb3" d="M 179.515625 206.25 C 179.515625 210.652344 183.078125 214.21875 187.46875 214.21875 C 191.867188 214.21875 195.425781 210.652344 195.425781 206.25 C 195.425781 201.851562 191.867188 198.285156 187.46875 198.285156 C 183.078125 198.285156 179.515625 201.851562 179.515625 206.25 " fill-opacity="1" fill-rule="nonzero"/><path fill="#ce244a" d="M 179.996094 206.25 C 179.996094 210.390625 183.339844 213.734375 187.46875 213.734375 C 191.597656 213.734375 194.945312 210.390625 194.945312 206.25 C 194.945312 202.121094 191.597656 198.769531 187.46875 198.769531 C 183.339844 198.769531 179.996094 202.121094 179.996094 206.25 " fill-opacity="1" fill-rule="nonzero"/><path fill="#ce406c" d="M 191.941406 211.8125 C 194.917969 209.261719 195.265625 204.773438 192.714844 201.785156 C 190.164062 198.8125 185.683594 198.460938 182.707031 201.011719 " fill-opacity="1" fill-rule="nonzero"/><path fill="#33888e" d="M 162.21875 196.085938 C 156.652344 196.085938 152.144531 200.601562 152.144531 206.171875 C 152.144531 211.742188 156.652344 216.257812 162.21875 216.257812 C 167.78125 216.257812 172.289062 211.742188 172.289062 206.171875 C 172.289062 200.601562 167.78125 196.085938 162.21875 196.085938 " fill-opacity="1" fill-rule="nonzero"/><path fill="#10272c" d="M 162.21875 197.628906 C 157.507812 197.628906 153.683594 201.457031 153.683594 206.171875 C 153.683594 210.890625 157.507812 214.714844 162.21875 214.714844 C 166.929688 214.714844 170.75 210.890625 170.75 206.171875 C 170.75 201.457031 166.929688 197.628906 162.21875 197.628906 " fill-opacity="1" fill-rule="nonzero"/><path fill="#40aeb3" d="M 154.203125 206.25 C 154.203125 210.652344 157.765625 214.21875 162.15625 214.21875 C 166.554688 214.21875 170.117188 210.652344 170.117188 206.25 C 170.117188 201.851562 166.554688 198.285156 162.15625 198.285156 C 157.765625 198.285156 154.203125 201.851562 154.203125 206.25 " fill-opacity="1" fill-rule="nonzero"/><path fill="#ce244a" d="M 154.683594 206.25 C 154.683594 210.390625 158.03125 213.734375 162.15625 213.734375 C 166.285156 213.734375 169.636719 210.390625 169.636719 206.25 C 169.636719 202.121094 166.285156 198.769531 162.15625 198.769531 C 158.03125 198.769531 154.683594 202.121094 154.683594 206.25 " fill-opacity="1" fill-rule="nonzero"/><path fill="#ce406c" d="M 166.628906 211.8125 C 169.605469 209.261719 169.957031 204.773438 167.402344 201.785156 C 164.859375 198.8125 160.375 198.460938 157.398438 201.011719 " fill-opacity="1" fill-rule="nonzero"/><path fill="#33888e" d="M 136.90625 196.085938 C 131.339844 196.085938 126.832031 200.601562 126.832031 206.171875 C 126.832031 211.742188 131.339844 216.257812 136.90625 216.257812 C 142.46875 216.257812 146.984375 211.742188 146.984375 206.171875 C 146.984375 200.601562 142.46875 196.085938 136.90625 196.085938 " fill-opacity="1" fill-rule="nonzero"/><path fill="#10272c" d="M 136.90625 197.628906 C 132.195312 197.628906 128.375 201.457031 128.375 206.171875 C 128.375 210.890625 132.195312 214.714844 136.90625 214.714844 C 141.625 214.714844 145.441406 210.890625 145.441406 206.171875 C 145.441406 201.457031 141.625 197.628906 136.90625 197.628906 " fill-opacity="1" fill-rule="nonzero"/><path fill="#40aeb3" d="M 128.890625 206.25 C 128.890625 210.652344 132.457031 214.21875 136.851562 214.21875 C 141.246094 214.21875 144.804688 210.652344 144.804688 206.25 C 144.804688 201.851562 141.246094 198.285156 136.851562 198.285156 C 132.457031 198.285156 128.890625 201.851562 128.890625 206.25 " fill-opacity="1" fill-rule="nonzero"/><path fill="#ce244a" d="M 129.371094 206.25 C 129.371094 210.390625 132.71875 213.734375 136.851562 213.734375 C 140.972656 213.734375 144.324219 210.390625 144.324219 206.25 C 144.324219 202.121094 140.972656 198.769531 136.851562 198.769531 C 132.71875 198.769531 129.371094 202.121094 129.371094 206.25 " fill-opacity="1" fill-rule="nonzero"/><path fill="#ce406c" d="M 141.320312 211.8125 C 144.296875 209.261719 144.648438 204.773438 142.097656 201.785156 C 139.546875 198.8125 135.0625 198.460938 132.085938 201.011719 " fill-opacity="1" fill-rule="nonzero"/><path fill="#33888e" d="M 248.027344 256.175781 C 232.191406 256.175781 219.367188 269.027344 219.367188 284.875 C 219.367188 300.726562 232.191406 313.566406 248.027344 313.566406 C 263.855469 313.566406 276.683594 300.726562 276.683594 284.875 C 276.683594 269.027344 263.855469 256.175781 248.027344 256.175781 " fill-opacity="1" fill-rule="nonzero"/><path fill="#40aeb3" d="M 248.027344 258.335938 C 233.382812 258.335938 221.519531 270.222656 221.519531 284.875 C 221.519531 299.527344 233.382812 311.40625 248.027344 311.40625 C 262.664062 311.40625 274.523438 299.527344 274.523438 284.875 C 274.523438 270.222656 262.664062 258.335938 248.027344 258.335938 " fill-opacity="1" fill-rule="nonzero"/><path fill="#122d32" d="M 239.125 285.191406 C 239.125 290.019531 243.03125 293.933594 247.855469 293.933594 C 252.679688 293.933594 256.585938 290.019531 256.585938 285.191406 C 256.585938 280.367188 252.679688 276.453125 247.855469 276.453125 C 243.03125 276.453125 239.125 280.367188 239.125 285.191406 " fill-opacity="1" fill-rule="nonzero"/><path fill="#0b1b1f" d="M 240.015625 284.570312 C 240.015625 288.910156 243.527344 292.425781 247.855469 292.425781 C 252.179688 292.425781 255.695312 288.910156 255.695312 284.570312 C 255.695312 280.242188 252.179688 276.726562 247.855469 276.726562 C 243.527344 276.726562 240.015625 280.242188 240.015625 284.570312 " fill-opacity="1" fill-rule="nonzero"/><path fill="#953a1b" d="M 247.867188 293.414062 C 250.476562 293.414062 252.402344 292.25 253.929688 290.660156 C 253.945312 290.519531 253.957031 290.378906 253.957031 290.234375 L 253.957031 245.9375 L 241.914062 245.9375 L 241.914062 290.234375 C 241.914062 290.429688 241.925781 290.621094 241.945312 290.8125 C 243.46875 292.316406 245.222656 293.414062 247.867188 293.414062 " fill-opacity="1" fill-rule="nonzero"/><path fill="#e9832b" d="M 268.738281 247.578125 C 268.738281 258.984375 259.503906 268.226562 248.113281 268.226562 C 236.722656 268.226562 227.488281 258.984375 227.488281 247.578125 C 227.488281 236.175781 236.722656 226.929688 248.113281 226.929688 C 259.503906 226.929688 268.738281 236.175781 268.738281 247.578125 " fill-opacity="1" fill-rule="nonzero"/><path fill="#d35629" d="M 248.113281 266 C 233.625 266 228.914062 255.1875 227.648438 245.003906 C 227.542969 245.847656 227.488281 246.707031 227.488281 247.578125 C 227.488281 258.984375 236.722656 268.226562 248.113281 268.226562 C 259.503906 268.226562 268.738281 258.984375 268.738281 247.578125 C 268.738281 246.707031 268.683594 245.847656 268.578125 245.003906 C 267.3125 255.1875 262.601562 266 248.113281 266 " fill-opacity="1" fill-rule="nonzero"/><path fill="#e8a527" d="M 264.5625 242.261719 C 264.5625 250.726562 257.199219 257.59375 248.113281 257.59375 C 239.027344 257.59375 231.660156 250.726562 231.660156 242.261719 C 231.660156 233.796875 239.027344 226.929688 248.113281 226.929688 C 257.199219 226.929688 264.5625 233.796875 264.5625 242.261719 " fill-opacity="1" fill-rule="nonzero"/><path fill="#33888e" d="M 149.519531 232.429688 C 121.269531 232.429688 98.375 255.359375 98.375 283.632812 C 98.375 311.914062 121.269531 334.828125 149.519531 334.828125 C 177.761719 334.828125 200.65625 311.914062 200.65625 283.632812 C 200.65625 255.359375 177.761719 232.429688 149.519531 232.429688 " fill-opacity="1" fill-rule="nonzero"/><path fill="#40aeb3" d="M 149.519531 236.925781 C 123.75 236.925781 102.863281 257.847656 102.863281 283.632812 C 102.863281 309.425781 123.75 330.332031 149.519531 330.332031 C 175.285156 330.332031 196.164062 309.425781 196.164062 283.632812 C 196.164062 257.847656 175.285156 236.925781 149.519531 236.925781 " fill-opacity="1" fill-rule="nonzero"/><path fill="#122d32" d="M 106 284.074219 C 106 307.964844 125.335938 327.328125 149.1875 327.328125 C 173.046875 327.328125 192.363281 307.964844 192.363281 284.074219 C 192.363281 260.203125 173.046875 240.839844 149.1875 240.839844 C 125.335938 240.839844 106 260.203125 106 284.074219 " fill-opacity="1" fill-rule="nonzero"/><path fill="#40aeb3" d="M 107.3125 284.074219 C 107.3125 307.238281 126.058594 326 149.1875 326 C 172.296875 326 191.054688 307.238281 191.054688 284.074219 C 191.054688 260.9375 172.296875 242.164062 149.1875 242.164062 C 126.058594 242.164062 107.3125 260.9375 107.3125 284.074219 " fill-opacity="1" fill-rule="nonzero"/><path fill="#33888e" d="M 161.378906 306.347656 L 137.503906 306.347656 L 137.503906 260.710938 L 161.378906 260.710938 L 161.378906 306.347656 " fill-opacity="1" fill-rule="nonzero"/><path fill="#33888e" d="M 172.402344 295.484375 L 126.488281 295.484375 L 126.488281 271.582031 L 172.402344 271.582031 L 172.402344 295.484375 " fill-opacity="1" fill-rule="nonzero"/><path fill="#33888e" d="M 126.554688 271.582031 C 119.964844 271.582031 114.621094 276.933594 114.621094 283.535156 C 114.621094 290.136719 119.964844 295.484375 126.554688 295.484375 C 133.148438 295.484375 138.496094 290.136719 138.496094 283.535156 C 138.496094 276.933594 133.148438 271.582031 126.554688 271.582031 " fill-opacity="1" fill-rule="nonzero"/><path fill="#122d32" d="M 126.554688 273.410156 C 120.972656 273.410156 116.449219 277.945312 116.449219 283.535156 C 116.449219 289.125 120.972656 293.652344 126.554688 293.652344 C 132.140625 293.652344 136.664062 289.125 136.664062 283.535156 C 136.664062 277.945312 132.140625 273.410156 126.554688 273.410156 " fill-opacity="1" fill-rule="nonzero"/><path fill="#210914" d="M 117.058594 283.625 C 117.058594 288.839844 121.28125 293.066406 126.488281 293.066406 C 131.695312 293.066406 135.914062 288.839844 135.914062 283.625 C 135.914062 278.417969 131.695312 274.1875 126.488281 274.1875 C 121.28125 274.1875 117.058594 278.417969 117.058594 283.625 " fill-opacity="1" fill-rule="nonzero"/><path fill="#692557" d="M 117.632812 283.625 C 117.632812 288.523438 121.597656 292.496094 126.488281 292.496094 C 131.375 292.496094 135.339844 288.523438 135.339844 283.625 C 135.339844 278.730469 131.375 274.765625 126.488281 274.765625 C 121.597656 274.765625 117.632812 278.730469 117.632812 283.625 " fill-opacity="1" fill-rule="nonzero"/><path fill="#704376" d="M 131.78125 290.214844 C 135.308594 287.195312 135.722656 281.875 132.703125 278.339844 C 129.683594 274.808594 124.375 274.398438 120.847656 277.417969 " fill-opacity="1" fill-rule="nonzero"/><path fill="#33888e" d="M 172.472656 271.582031 C 165.882812 271.582031 160.539062 276.933594 160.539062 283.535156 C 160.539062 290.136719 165.882812 295.484375 172.472656 295.484375 C 179.066406 295.484375 184.410156 290.136719 184.410156 283.535156 C 184.410156 276.933594 179.066406 271.582031 172.472656 271.582031 " fill-opacity="1" fill-rule="nonzero"/><path fill="#122d32" d="M 172.472656 273.410156 C 166.890625 273.410156 162.363281 277.945312 162.363281 283.535156 C 162.363281 289.125 166.890625 293.652344 172.472656 293.652344 C 178.054688 293.652344 182.582031 289.125 182.582031 283.535156 C 182.582031 277.945312 178.054688 273.410156 172.472656 273.410156 " fill-opacity="1" fill-rule="nonzero"/><path fill="#210914" d="M 162.976562 283.625 C 162.976562 288.839844 167.199219 293.066406 172.40625 293.066406 C 177.609375 293.066406 181.828125 288.839844 181.828125 283.625 C 181.828125 278.417969 177.609375 274.1875 172.40625 274.1875 C 167.199219 274.1875 162.976562 278.417969 162.976562 283.625 " fill-opacity="1" fill-rule="nonzero"/><path fill="#692557" d="M 163.546875 283.625 C 163.546875 288.523438 167.515625 292.496094 172.40625 292.496094 C 177.289062 292.496094 181.257812 288.523438 181.257812 283.625 C 181.257812 278.730469 177.289062 274.765625 172.40625 274.765625 C 167.515625 274.765625 163.546875 278.730469 163.546875 283.625 " fill-opacity="1" fill-rule="nonzero"/><path fill="#704376" d="M 177.695312 290.214844 C 181.222656 287.195312 181.640625 281.875 178.617188 278.339844 C 175.601562 274.808594 170.289062 274.398438 166.761719 277.417969 " fill-opacity="1" fill-rule="nonzero"/><path fill="#33888e" d="M 149.515625 248.765625 C 142.925781 248.765625 137.578125 254.113281 137.578125 260.714844 C 137.578125 267.320312 142.925781 272.664062 149.515625 272.664062 C 156.105469 272.664062 161.449219 267.320312 161.449219 260.714844 C 161.449219 254.113281 156.105469 248.765625 149.515625 248.765625 " fill-opacity="1" fill-rule="nonzero"/><path fill="#122d32" d="M 149.515625 250.59375 C 143.933594 250.59375 139.40625 255.128906 139.40625 260.714844 C 139.40625 266.304688 143.933594 270.832031 149.515625 270.832031 C 155.097656 270.832031 159.625 266.304688 159.625 260.714844 C 159.625 255.128906 155.097656 250.59375 149.515625 250.59375 " fill-opacity="1" fill-rule="nonzero"/><path fill="#210914" d="M 140.015625 260.808594 C 140.015625 266.023438 144.242188 270.25 149.445312 270.25 C 154.652344 270.25 158.867188 266.023438 158.867188 260.808594 C 158.867188 255.601562 154.652344 251.371094 149.445312 251.371094 C 144.242188 251.371094 140.015625 255.601562 140.015625 260.808594 " fill-opacity="1" fill-rule="nonzero"/><path fill="#692557" d="M 140.589844 260.808594 C 140.589844 265.710938 144.554688 269.675781 149.445312 269.675781 C 154.335938 269.675781 158.296875 265.710938 158.296875 260.808594 C 158.296875 255.917969 154.335938 251.941406 149.445312 251.941406 C 144.554688 251.941406 140.589844 255.917969 140.589844 260.808594 " fill-opacity="1" fill-rule="nonzero"/><path fill="#704376" d="M 154.742188 267.398438 C 158.265625 264.375 158.679688 259.058594 155.65625 255.523438 C 152.640625 251.992188 147.332031 251.578125 143.800781 254.601562 " fill-opacity="1" fill-rule="nonzero"/><path fill="#33888e" d="M 149.515625 294.398438 C 142.925781 294.398438 137.578125 299.75 137.578125 306.347656 C 137.578125 312.949219 142.925781 318.300781 149.515625 318.300781 C 156.105469 318.300781 161.449219 312.949219 161.449219 306.347656 C 161.449219 299.75 156.105469 294.398438 149.515625 294.398438 " fill-opacity="1" fill-rule="nonzero"/><path fill="#122d32" d="M 149.515625 296.230469 C 143.933594 296.230469 139.40625 300.761719 139.40625 306.347656 C 139.40625 311.941406 143.933594 316.46875 149.515625 316.46875 C 155.097656 316.46875 159.625 311.941406 159.625 306.347656 C 159.625 300.761719 155.097656 296.230469 149.515625 296.230469 " fill-opacity="1" fill-rule="nonzero"/><path fill="#210914" d="M 140.015625 306.441406 C 140.015625 311.65625 144.242188 315.882812 149.445312 315.882812 C 154.652344 315.882812 158.867188 311.65625 158.867188 306.441406 C 158.867188 301.230469 154.652344 297.003906 149.445312 297.003906 C 144.242188 297.003906 140.015625 301.230469 140.015625 306.441406 " fill-opacity="1" fill-rule="nonzero"/><path fill="#692557" d="M 140.589844 306.441406 C 140.589844 311.339844 144.554688 315.3125 149.445312 315.3125 C 154.335938 315.3125 158.296875 311.339844 158.296875 306.441406 C 158.296875 301.550781 154.335938 297.582031 149.445312 297.582031 C 144.554688 297.582031 140.589844 301.550781 140.589844 306.441406 " fill-opacity="1" fill-rule="nonzero"/><path fill="#704376" d="M 154.742188 313.03125 C 158.265625 310.011719 158.679688 304.695312 155.65625 301.160156 C 152.640625 297.632812 147.332031 297.214844 143.800781 300.238281 " fill-opacity="1" fill-rule="nonzero"/><path fill="#194045" d="M 268.292969 43.816406 L 106.765625 43.816406 C 102.9375 43.816406 99.847656 46.878906 99.847656 50.65625 L 99.847656 170.453125 C 99.847656 174.230469 102.945312 177.292969 106.761719 177.292969 L 268.292969 177.292969 C 272.121094 177.292969 275.214844 174.230469 275.214844 170.453125 L 275.214844 50.65625 C 275.214844 46.878906 272.109375 43.816406 268.292969 43.816406 " fill-opacity="1" fill-rule="nonzero"/><path fill="#5a741a" d="M 270.445312 171.859375 L 104.609375 171.859375 L 104.609375 49.246094 L 270.445312 49.246094 L 270.445312 171.859375 " fill-opacity="1" fill-rule="nonzero"/><path fill="#85ac29" d="M 268.917969 170.394531 L 106.136719 170.394531 L 106.136719 50.703125 L 268.917969 50.703125 L 268.917969 170.394531 " fill-opacity="1" fill-rule="nonzero"/><path fill="#9dc320" d="M 106.136719 50.703125 L 106.136719 170.394531 L 268.917969 50.703125 Z M 106.136719 50.703125 " fill-opacity="1" fill-rule="nonzero"/><path fill="#194045" d="M 101.617188 38.640625 C 97.847656 38.640625 94.785156 41.671875 94.785156 45.390625 L 94.785156 175.710938 C 94.785156 179.433594 97.847656 182.460938 101.613281 182.460938 L 273.4375 182.460938 C 277.207031 182.460938 280.273438 179.433594 280.273438 175.710938 L 280.273438 45.390625 C 280.273438 41.671875 277.207031 38.640625 273.441406 38.640625 Z M 273.4375 183.511719 L 101.613281 183.511719 C 97.269531 183.511719 93.734375 180.015625 93.734375 175.710938 L 93.734375 45.390625 C 93.734375 41.089844 97.269531 37.585938 101.617188 37.585938 L 273.441406 37.585938 C 277.785156 37.585938 281.328125 41.089844 281.328125 45.390625 L 281.328125 175.710938 C 281.328125 180.015625 277.785156 183.511719 273.4375 183.511719 " fill-opacity="1" fill-rule="nonzero"/><g clip-path="url(#id2)"><path fill="#000000" d="M 103.433594 49.535156 L 272.179688 49.535156 L 272.179688 171.785156 L 103.433594 171.785156 L 103.433594 49.535156 " fill-opacity="1" fill-rule="nonzero"/></g><g fill="#ff0000" fill-opacity="1"><g transform="translate(106.259831, 107.120854)"><g><path d="M 26.113281 0 L 26.113281 -5.722656 L 7.511719 -5.722656 L 7.511719 -19.316406 L 21.285156 -19.316406 L 21.285156 -15.738281 L 27.007812 -15.738281 L 27.007812 -21.460938 L 23.429688 -25.039062 L 5.367188 -25.039062 L 1.789062 -21.460938 L 1.789062 -3.578125 L 5.367188 0 Z M 26.113281 0 "/></g></g></g><g fill="#ff0000" fill-opacity="1"><g transform="translate(138.882746, 107.120854)"><g><path d="M 27.1875 0 L 27.1875 -25.039062 L 21.460938 -25.039062 L 21.460938 -15.382812 L 8.585938 -15.382812 L 8.585938 -25.039062 L 0.179688 -25.039062 L 0.179688 -19.316406 L 2.863281 -19.316406 L 2.863281 0 L 8.585938 0 L 8.585938 -9.65625 L 21.460938 -9.65625 L 21.460938 0 Z M 27.1875 0 "/></g></g></g><g fill="#ff0000" fill-opacity="1"><g transform="translate(171.684501, 107.120854)"><g><path d="M 27.007812 0 L 27.007812 -21.460938 L 23.429688 -25.039062 L 2.683594 -25.039062 L 2.683594 -19.316406 L 21.285156 -19.316406 L 21.285156 -15.382812 L 5.367188 -15.382812 L 1.789062 -11.804688 L 1.789062 -3.578125 L 5.367188 0 L 19.496094 0 L 19.496094 -5.722656 L 7.511719 -5.722656 L 7.511719 -9.65625 L 21.285156 -9.65625 L 21.285156 -3.578125 L 24.859375 0 Z M 27.007812 0 "/></g></g></g><g fill="#ff0000" fill-opacity="1"><g transform="translate(204.307415, 107.120854)"><g><path d="M 24.324219 0 L 27.902344 -3.578125 L 27.902344 -21.460938 L 24.324219 -25.039062 L 5.367188 -25.039062 L 1.789062 -21.460938 L 1.789062 -3.578125 L 5.367188 0 Z M 22.179688 -5.722656 L 7.511719 -5.722656 L 7.511719 -19.316406 L 22.179688 -19.316406 Z M 22.179688 -5.722656 "/></g></g></g><g fill="#ff0000" fill-opacity="1"><g transform="translate(237.824576, 107.120854)"><g><path d="M 22 0 L 25.574219 -3.578125 L 25.574219 -11.804688 L 22 -15.382812 L 7.511719 -15.382812 L 7.511719 -19.316406 L 25.574219 -19.316406 L 25.574219 -25.039062 L 5.367188 -25.039062 L 1.789062 -21.460938 L 1.789062 -13.234375 L 5.367188 -9.65625 L 19.851562 -9.65625 L 19.851562 -5.722656 L 1.789062 -5.722656 L 1.789062 0 Z M 22 0 "/></g></g></g><g fill="#00ffff" fill-opacity="1"><g transform="translate(109.810773, 106.684858)"><g><path d="M 26.113281 0 L 26.113281 -5.722656 L 7.511719 -5.722656 L 7.511719 -19.316406 L 21.285156 -19.316406 L 21.285156 -15.738281 L 27.007812 -15.738281 L 27.007812 -21.460938 L 23.429688 -25.039062 L 5.367188 -25.039062 L 1.789062 -21.460938 L 1.789062 -3.578125 L 5.367188 0 Z M 26.113281 0 "/></g></g></g><g fill="#00ffff" fill-opacity="1"><g transform="translate(142.433687, 106.684858)"><g><path d="M 27.1875 0 L 27.1875 -25.039062 L 21.460938 -25.039062 L 21.460938 -15.382812 L 8.585938 -15.382812 L 8.585938 -25.039062 L 0.179688 -25.039062 L 0.179688 -19.316406 L 2.863281 -19.316406 L 2.863281 0 L 8.585938 0 L 8.585938 -9.65625 L 21.460938 -9.65625 L 21.460938 0 Z M 27.1875 0 "/></g></g></g><g fill="#00ffff" fill-opacity="1"><g transform="translate(175.235442, 106.684858)"><g><path d="M 27.007812 0 L 27.007812 -21.460938 L 23.429688 -25.039062 L 2.683594 -25.039062 L 2.683594 -19.316406 L 21.285156 -19.316406 L 21.285156 -15.382812 L 5.367188 -15.382812 L 1.789062 -11.804688 L 1.789062 -3.578125 L 5.367188 0 L 19.496094 0 L 19.496094 -5.722656 L 7.511719 -5.722656 L 7.511719 -9.65625 L 21.285156 -9.65625 L 21.285156 -3.578125 L 24.859375 0 Z M 27.007812 0 "/></g></g></g><g fill="#00ffff" fill-opacity="1"><g transform="translate(207.858357, 106.684858)"><g><path d="M 24.324219 0 L 27.902344 -3.578125 L 27.902344 -21.460938 L 24.324219 -25.039062 L 5.367188 -25.039062 L 1.789062 -21.460938 L 1.789062 -3.578125 L 5.367188 0 Z M 22.179688 -5.722656 L 7.511719 -5.722656 L 7.511719 -19.316406 L 22.179688 -19.316406 Z M 22.179688 -5.722656 "/></g></g></g><g fill="#00ffff" fill-opacity="1"><g transform="translate(241.375517, 106.684858)"><g><path d="M 22 0 L 25.574219 -3.578125 L 25.574219 -11.804688 L 22 -15.382812 L 7.511719 -15.382812 L 7.511719 -19.316406 L 25.574219 -19.316406 L 25.574219 -25.039062 L 5.367188 -25.039062 L 1.789062 -21.460938 L 1.789062 -13.234375 L 5.367188 -9.65625 L 19.851562 -9.65625 L 19.851562 -5.722656 L 1.789062 -5.722656 L 1.789062 0 Z M 22 0 "/></g></g></g><g fill="#fbff2c" fill-opacity="1"><g transform="translate(108.035301, 106.902855)"><g><path d="M 26.113281 0 L 26.113281 -5.722656 L 7.511719 -5.722656 L 7.511719 -19.316406 L 21.285156 -19.316406 L 21.285156 -15.738281 L 27.007812 -15.738281 L 27.007812 -21.460938 L 23.429688 -25.039062 L 5.367188 -25.039062 L 1.789062 -21.460938 L 1.789062 -3.578125 L 5.367188 0 Z M 26.113281 0 "/></g></g></g><g fill="#fbff2c" fill-opacity="1"><g transform="translate(140.658215, 106.902855)"><g><path d="M 27.1875 0 L 27.1875 -25.039062 L 21.460938 -25.039062 L 21.460938 -15.382812 L 8.585938 -15.382812 L 8.585938 -25.039062 L 0.179688 -25.039062 L 0.179688 -19.316406 L 2.863281 -19.316406 L 2.863281 0 L 8.585938 0 L 8.585938 -9.65625 L 21.460938 -9.65625 L 21.460938 0 Z M 27.1875 0 "/></g></g></g><g fill="#fbff2c" fill-opacity="1"><g transform="translate(173.45997, 106.902855)"><g><path d="M 27.007812 0 L 27.007812 -21.460938 L 23.429688 -25.039062 L 2.683594 -25.039062 L 2.683594 -19.316406 L 21.285156 -19.316406 L 21.285156 -15.382812 L 5.367188 -15.382812 L 1.789062 -11.804688 L 1.789062 -3.578125 L 5.367188 0 L 19.496094 0 L 19.496094 -5.722656 L 7.511719 -5.722656 L 7.511719 -9.65625 L 21.285156 -9.65625 L 21.285156 -3.578125 L 24.859375 0 Z M 27.007812 0 "/></g></g></g><g fill="#fbff2c" fill-opacity="1"><g transform="translate(206.082885, 106.902855)"><g><path d="M 24.324219 0 L 27.902344 -3.578125 L 27.902344 -21.460938 L 24.324219 -25.039062 L 5.367188 -25.039062 L 1.789062 -21.460938 L 1.789062 -3.578125 L 5.367188 0 Z M 22.179688 -5.722656 L 7.511719 -5.722656 L 7.511719 -19.316406 L 22.179688 -19.316406 Z M 22.179688 -5.722656 "/></g></g></g><g fill="#fbff2c" fill-opacity="1"><g transform="translate(239.600045, 106.902855)"><g><path d="M 22 0 L 25.574219 -3.578125 L 25.574219 -11.804688 L 22 -15.382812 L 7.511719 -15.382812 L 7.511719 -19.316406 L 25.574219 -19.316406 L 25.574219 -25.039062 L 5.367188 -25.039062 L 1.789062 -21.460938 L 1.789062 -13.234375 L 5.367188 -9.65625 L 19.851562 -9.65625 L 19.851562 -5.722656 L 1.789062 -5.722656 L 1.789062 0 Z M 22 0 "/></g></g></g><g fill="#ff0000" fill-opacity="1"><g transform="translate(122.964271, 139.033812)"><g><path d="M 26.113281 0 L 26.113281 -5.722656 L 7.511719 -5.722656 L 7.511719 -19.316406 L 21.285156 -19.316406 L 21.285156 -15.738281 L 27.007812 -15.738281 L 27.007812 -21.460938 L 23.429688 -25.039062 L 5.367188 -25.039062 L 1.789062 -21.460938 L 1.789062 -3.578125 L 5.367188 0 Z M 26.113281 0 "/></g></g></g><g fill="#ff0000" fill-opacity="1"><g transform="translate(155.587185, 139.033812)"><g><path d="M 30.15625 0 L 18.457031 -25.039062 L 6.652344 -25.039062 L 6.652344 -19.316406 L 9.335938 -19.316406 L 0.359375 0 L 6.617188 0 L 8.621094 -4.292969 L 21.855469 -4.292969 L 23.894531 0 Z M 19.171875 -10.015625 L 11.269531 -10.015625 L 15.09375 -19.421875 L 15.34375 -19.421875 Z M 19.171875 -10.015625 "/></g></g></g><g fill="#ff0000" fill-opacity="1"><g transform="translate(189.927053, 139.033812)"><g><path d="M 21.820312 -6.082031 L 25.398438 -9.65625 L 25.398438 -21.460938 L 21.820312 -25.039062 L 0.179688 -25.039062 L 0.179688 -19.316406 L 19.675781 -19.316406 L 19.675781 -11.804688 L 8.585938 -11.804688 L 8.585938 -17.527344 L 2.863281 -17.527344 L 2.863281 0 L 8.585938 0 L 8.585938 -6.082031 L 14.558594 -6.082031 C 16.347656 -4.042969 18.101562 -2.003906 19.925781 0 L 27.1875 0 C 25.363281 -2.003906 23.609375 -4.042969 21.820312 -6.082031 Z M 21.820312 -6.082031 "/></g></g></g><g fill="#ff0000" fill-opacity="1"><g transform="translate(221.298011, 139.033812)"><g><path d="M 21.820312 0 L 25.398438 -3.578125 L 25.398438 -21.460938 L 21.820312 -25.039062 L 0.179688 -25.039062 L 0.179688 -19.316406 L 19.675781 -19.316406 L 19.675781 -5.722656 L 8.585938 -5.722656 L 8.585938 -17.527344 L 2.863281 -17.527344 L 2.863281 0 Z M 21.820312 0 "/></g></g></g><g fill="#00ffff" fill-opacity="1"><g transform="translate(126.515212, 138.597816)"><g><path d="M 26.113281 0 L 26.113281 -5.722656 L 7.511719 -5.722656 L 7.511719 -19.316406 L 21.285156 -19.316406 L 21.285156 -15.738281 L 27.007812 -15.738281 L 27.007812 -21.460938 L 23.429688 -25.039062 L 5.367188 -25.039062 L 1.789062 -21.460938 L 1.789062 -3.578125 L 5.367188 0 Z M 26.113281 0 "/></g></g></g><g fill="#00ffff" fill-opacity="1"><g transform="translate(159.138126, 138.597816)"><g><path d="M 30.15625 0 L 18.457031 -25.039062 L 6.652344 -25.039062 L 6.652344 -19.316406 L 9.335938 -19.316406 L 0.359375 0 L 6.617188 0 L 8.621094 -4.292969 L 21.855469 -4.292969 L 23.894531 0 Z M 19.171875 -10.015625 L 11.269531 -10.015625 L 15.09375 -19.421875 L 15.34375 -19.421875 Z M 19.171875 -10.015625 "/></g></g></g><g fill="#00ffff" fill-opacity="1"><g transform="translate(193.477995, 138.597816)"><g><path d="M 21.820312 -6.082031 L 25.398438 -9.65625 L 25.398438 -21.460938 L 21.820312 -25.039062 L 0.179688 -25.039062 L 0.179688 -19.316406 L 19.675781 -19.316406 L 19.675781 -11.804688 L 8.585938 -11.804688 L 8.585938 -17.527344 L 2.863281 -17.527344 L 2.863281 0 L 8.585938 0 L 8.585938 -6.082031 L 14.558594 -6.082031 C 16.347656 -4.042969 18.101562 -2.003906 19.925781 0 L 27.1875 0 C 25.363281 -2.003906 23.609375 -4.042969 21.820312 -6.082031 Z M 21.820312 -6.082031 "/></g></g></g><g fill="#00ffff" fill-opacity="1"><g transform="translate(224.848953, 138.597816)"><g><path d="M 21.820312 0 L 25.398438 -3.578125 L 25.398438 -21.460938 L 21.820312 -25.039062 L 0.179688 -25.039062 L 0.179688 -19.316406 L 19.675781 -19.316406 L 19.675781 -5.722656 L 8.585938 -5.722656 L 8.585938 -17.527344 L 2.863281 -17.527344 L 2.863281 0 Z M 21.820312 0 "/></g></g></g><g fill="#fbff2c" fill-opacity="1"><g transform="translate(124.73974, 138.815813)"><g><path d="M 26.113281 0 L 26.113281 -5.722656 L 7.511719 -5.722656 L 7.511719 -19.316406 L 21.285156 -19.316406 L 21.285156 -15.738281 L 27.007812 -15.738281 L 27.007812 -21.460938 L 23.429688 -25.039062 L 5.367188 -25.039062 L 1.789062 -21.460938 L 1.789062 -3.578125 L 5.367188 0 Z M 26.113281 0 "/></g></g></g><g fill="#fbff2c" fill-opacity="1"><g transform="translate(157.362655, 138.815813)"><g><path d="M 30.15625 0 L 18.457031 -25.039062 L 6.652344 -25.039062 L 6.652344 -19.316406 L 9.335938 -19.316406 L 0.359375 0 L 6.617188 0 L 8.621094 -4.292969 L 21.855469 -4.292969 L 23.894531 0 Z M 19.171875 -10.015625 L 11.269531 -10.015625 L 15.09375 -19.421875 L 15.34375 -19.421875 Z M 19.171875 -10.015625 "/></g></g></g><g fill="#fbff2c" fill-opacity="1"><g transform="translate(191.702523, 138.815813)"><g><path d="M 21.820312 -6.082031 L 25.398438 -9.65625 L 25.398438 -21.460938 L 21.820312 -25.039062 L 0.179688 -25.039062 L 0.179688 -19.316406 L 19.675781 -19.316406 L 19.675781 -11.804688 L 8.585938 -11.804688 L 8.585938 -17.527344 L 2.863281 -17.527344 L 2.863281 0 L 8.585938 0 L 8.585938 -6.082031 L 14.558594 -6.082031 C 16.347656 -4.042969 18.101562 -2.003906 19.925781 0 L 27.1875 0 C 25.363281 -2.003906 23.609375 -4.042969 21.820312 -6.082031 Z M 21.820312 -6.082031 "/></g></g></g><g fill="#fbff2c" fill-opacity="1"><g transform="translate(223.073481, 138.815813)"><g><path d="M 21.820312 0 L 25.398438 -3.578125 L 25.398438 -21.460938 L 21.820312 -25.039062 L 0.179688 -25.039062 L 0.179688 -19.316406 L 19.675781 -19.316406 L 19.675781 -5.722656 L 8.585938 -5.722656 L 8.585938 -17.527344 L 2.863281 -17.527344 L 2.863281 0 Z M 21.820312 0 "/></g></g></g></svg>