<svg xmlns="http://www.w3.org/2000/svg" xmlns:xlink="http://www.w3.org/1999/xlink" width="500" zoomAndPan="magnify" viewBox="0 0 375 374.999991" height="500" preserveAspectRatio="xMidYMid meet" version="1.0"><defs><g/><clipPath id="id1"><path d="M 70.105469 3.660156 L 310.855469 3.660156 L 310.855469 362.160156 L 70.105469 362.160156 Z M 70.105469 3.660156 " clip-rule="nonzero"/></clipPath><clipPath id="id2"><path d="M 98.890625 33.019531 L 281.890625 33.019531 L 281.890625 165.769531 L 98.890625 165.769531 Z M 98.890625 33.019531 " clip-rule="nonzero"/></clipPath></defs><g clip-path="url(#id1)"><path fill="#194045" d="M 310.703125 353.136719 C 310.703125 358.113281 306.667969 362.148438 301.683594 362.148438 L 79.15625 362.148438 C 74.175781 362.148438 70.140625 358.113281 70.140625 353.136719 L 70.140625 12.683594 C 70.140625 7.703125 74.175781 3.667969 79.15625 3.667969 L 301.683594 3.667969 C 306.667969 3.667969 310.703125 7.703125 310.703125 12.683594 L 310.703125 353.136719 " fill-opacity="1" fill-rule="nonzero"/></g><path fill="#40aeb3" d="M 307.507812 350.183594 C 307.507812 355.03125 303.582031 358.953125 298.730469 358.953125 L 82.109375 358.953125 C 77.265625 358.953125 73.335938 355.03125 73.335938 350.183594 L 73.335938 15.632812 C 73.335938 10.792969 77.265625 6.859375 82.109375 6.859375 L 298.730469 6.859375 C 303.582031 6.859375 307.507812 10.792969 307.507812 15.632812 L 307.507812 350.183594 " fill-opacity="1" fill-rule="nonzero"/><path fill="#33888e" d="M 245.507812 192.203125 C 239.449219 192.203125 234.539062 197.109375 234.539062 203.15625 C 234.539062 209.210938 239.449219 214.117188 245.507812 214.117188 C 251.558594 214.117188 256.464844 209.210938 256.464844 203.15625 C 256.464844 197.109375 251.558594 192.203125 245.507812 192.203125 " fill-opacity="1" fill-rule="nonzero"/><path fill="#10272c" d="M 245.507812 193.878906 C 240.375 193.878906 236.21875 198.039062 236.21875 203.15625 C 236.21875 208.285156 240.375 212.4375 245.507812 212.4375 C 250.632812 212.4375 254.789062 208.285156 254.789062 203.15625 C 254.789062 198.039062 250.632812 193.878906 245.507812 193.878906 " fill-opacity="1" fill-rule="nonzero"/><path fill="#40aeb3" d="M 236.785156 203.242188 C 236.785156 208.027344 240.660156 211.902344 245.4375 211.902344 C 250.226562 211.902344 254.09375 208.027344 254.09375 203.242188 C 254.09375 198.46875 250.226562 194.589844 245.4375 194.589844 C 240.660156 194.589844 236.785156 198.46875 236.785156 203.242188 " fill-opacity="1" fill-rule="nonzero"/><path fill="#e9832b" d="M 237.308594 203.242188 C 237.308594 207.738281 240.949219 211.375 245.4375 211.375 C 249.925781 211.375 253.570312 207.738281 253.570312 203.242188 C 253.570312 198.757812 249.925781 195.117188 245.4375 195.117188 C 240.949219 195.117188 237.308594 198.757812 237.308594 203.242188 " fill-opacity="1" fill-rule="nonzero"/><path fill="#e8a527" d="M 250.300781 209.289062 C 253.539062 206.515625 253.925781 201.640625 251.148438 198.394531 C 248.375 195.164062 243.496094 194.78125 240.253906 197.554688 " fill-opacity="1" fill-rule="nonzero"/><path fill="#33888e" d="M 217.964844 192.203125 C 211.90625 192.203125 206.996094 197.109375 206.996094 203.15625 C 206.996094 209.210938 211.90625 214.117188 217.964844 214.117188 C 224.015625 214.117188 228.925781 209.210938 228.925781 203.15625 C 228.925781 197.109375 224.015625 192.203125 217.964844 192.203125 " fill-opacity="1" fill-rule="nonzero"/><path fill="#10272c" d="M 217.964844 193.878906 C 212.835938 193.878906 208.679688 198.039062 208.679688 203.15625 C 208.679688 208.285156 212.835938 212.4375 217.964844 212.4375 C 223.089844 212.4375 227.246094 208.285156 227.246094 203.15625 C 227.246094 198.039062 223.089844 193.878906 217.964844 193.878906 " fill-opacity="1" fill-rule="nonzero"/><path fill="#40aeb3" d="M 209.242188 203.242188 C 209.242188 208.027344 213.121094 211.902344 217.898438 211.902344 C 222.683594 211.902344 226.558594 208.027344 226.558594 203.242188 C 226.558594 198.46875 222.683594 194.589844 217.898438 194.589844 C 213.121094 194.589844 209.242188 198.46875 209.242188 203.242188 " fill-opacity="1" fill-rule="nonzero"/><path fill="#ce244a" d="M 209.765625 203.242188 C 209.765625 207.738281 213.40625 211.375 217.898438 211.375 C 222.390625 211.375 226.03125 207.738281 226.03125 203.242188 C 226.03125 198.757812 222.390625 195.117188 217.898438 195.117188 C 213.40625 195.117188 209.765625 198.757812 209.765625 203.242188 " fill-opacity="1" fill-rule="nonzero"/><path fill="#ce406c" d="M 222.761719 209.289062 C 226.003906 206.515625 226.382812 201.640625 223.605469 198.394531 C 220.832031 195.164062 215.957031 194.78125 212.714844 197.554688 " fill-opacity="1" fill-rule="nonzero"/><path fill="#33888e" d="M 190.421875 192.203125 C 184.367188 192.203125 179.457031 197.109375 179.457031 203.15625 C 179.457031 209.210938 184.367188 214.117188 190.421875 214.117188 C 196.476562 214.117188 201.382812 209.210938 201.382812 203.15625 C 201.382812 197.109375 196.476562 192.203125 190.421875 192.203125 " fill-opacity="1" fill-rule="nonzero"/><path fill="#10272c" d="M 190.421875 193.878906 C 185.292969 193.878906 181.136719 198.039062 181.136719 203.15625 C 181.136719 208.285156 185.292969 212.4375 190.421875 212.4375 C 195.550781 212.4375 199.710938 208.285156 199.710938 203.15625 C 199.710938 198.039062 195.550781 193.878906 190.421875 193.878906 " fill-opacity="1" fill-rule="nonzero"/><path fill="#40aeb3" d="M 181.699219 203.242188 C 181.699219 208.027344 185.578125 211.902344 190.355469 211.902344 C 195.144531 211.902344 199.015625 208.027344 199.015625 203.242188 C 199.015625 198.46875 195.144531 194.589844 190.355469 194.589844 C 185.578125 194.589844 181.699219 198.46875 181.699219 203.242188 " fill-opacity="1" fill-rule="nonzero"/><path fill="#ce244a" d="M 182.222656 203.242188 C 182.222656 207.738281 185.867188 211.375 190.355469 211.375 C 194.847656 211.375 198.492188 207.738281 198.492188 203.242188 C 198.492188 198.757812 194.847656 195.117188 190.355469 195.117188 C 185.867188 195.117188 182.222656 198.757812 182.222656 203.242188 " fill-opacity="1" fill-rule="nonzero"/><path fill="#ce406c" d="M 195.222656 209.289062 C 198.460938 206.515625 198.84375 201.640625 196.0625 198.394531 C 193.289062 195.164062 188.414062 194.78125 185.175781 197.554688 " fill-opacity="1" fill-rule="nonzero"/><path fill="#33888e" d="M 162.882812 192.203125 C 156.824219 192.203125 151.917969 197.109375 151.917969 203.15625 C 151.917969 209.210938 156.824219 214.117188 162.882812 214.117188 C 168.933594 214.117188 173.839844 209.210938 173.839844 203.15625 C 173.839844 197.109375 168.933594 192.203125 162.882812 192.203125 " fill-opacity="1" fill-rule="nonzero"/><path fill="#10272c" d="M 162.882812 193.878906 C 157.757812 193.878906 153.597656 198.039062 153.597656 203.15625 C 153.597656 208.285156 157.757812 212.4375 162.882812 212.4375 C 168.007812 212.4375 172.164062 208.285156 172.164062 203.15625 C 172.164062 198.039062 168.007812 193.878906 162.882812 193.878906 " fill-opacity="1" fill-rule="nonzero"/><path fill="#40aeb3" d="M 154.160156 203.242188 C 154.160156 208.027344 158.039062 211.902344 162.816406 211.902344 C 167.601562 211.902344 171.476562 208.027344 171.476562 203.242188 C 171.476562 198.46875 167.601562 194.589844 162.816406 194.589844 C 158.039062 194.589844 154.160156 198.46875 154.160156 203.242188 " fill-opacity="1" fill-rule="nonzero"/><path fill="#ce244a" d="M 154.683594 203.242188 C 154.683594 207.738281 158.324219 211.375 162.816406 211.375 C 167.304688 211.375 170.953125 207.738281 170.953125 203.242188 C 170.953125 198.757812 167.304688 195.117188 162.816406 195.117188 C 158.324219 195.117188 154.683594 198.757812 154.683594 203.242188 " fill-opacity="1" fill-rule="nonzero"/><path fill="#ce406c" d="M 167.683594 209.289062 C 170.921875 206.515625 171.300781 201.640625 168.523438 198.394531 C 165.753906 195.164062 160.875 194.78125 157.636719 197.554688 " fill-opacity="1" fill-rule="nonzero"/><path fill="#33888e" d="M 135.339844 192.203125 C 129.285156 192.203125 124.378906 197.109375 124.378906 203.15625 C 124.378906 209.210938 129.285156 214.117188 135.339844 214.117188 C 141.394531 214.117188 146.304688 209.210938 146.304688 203.15625 C 146.304688 197.109375 141.394531 192.203125 135.339844 192.203125 " fill-opacity="1" fill-rule="nonzero"/><path fill="#10272c" d="M 135.339844 193.878906 C 130.214844 193.878906 126.054688 198.039062 126.054688 203.15625 C 126.054688 208.285156 130.214844 212.4375 135.339844 212.4375 C 140.472656 212.4375 144.628906 208.285156 144.628906 203.15625 C 144.628906 198.039062 140.472656 193.878906 135.339844 193.878906 " fill-opacity="1" fill-rule="nonzero"/><path fill="#40aeb3" d="M 126.617188 203.242188 C 126.617188 208.027344 130.496094 211.902344 135.277344 211.902344 C 140.0625 211.902344 143.933594 208.027344 143.933594 203.242188 C 143.933594 198.46875 140.0625 194.589844 135.277344 194.589844 C 130.496094 194.589844 126.617188 198.46875 126.617188 203.242188 " fill-opacity="1" fill-rule="nonzero"/><path fill="#ce244a" d="M 127.140625 203.242188 C 127.140625 207.738281 130.785156 211.375 135.277344 211.375 C 139.765625 211.375 143.410156 207.738281 143.410156 203.242188 C 143.410156 198.757812 139.765625 195.117188 135.277344 195.117188 C 130.785156 195.117188 127.140625 198.757812 127.140625 203.242188 " fill-opacity="1" fill-rule="nonzero"/><path fill="#ce406c" d="M 140.140625 209.289062 C 143.378906 206.515625 143.765625 201.640625 140.988281 198.394531 C 138.214844 195.164062 133.332031 194.78125 130.09375 197.554688 " fill-opacity="1" fill-rule="nonzero"/><path fill="#33888e" d="M 256.25 257.484375 C 239.019531 257.484375 225.0625 271.441406 225.0625 288.660156 C 225.0625 305.878906 239.019531 319.828125 256.25 319.828125 C 273.472656 319.828125 287.433594 305.878906 287.433594 288.660156 C 287.433594 271.441406 273.472656 257.484375 256.25 257.484375 " fill-opacity="1" fill-rule="nonzero"/><path fill="#40aeb3" d="M 256.25 259.828125 C 240.316406 259.828125 227.40625 272.742188 227.40625 288.660156 C 227.40625 304.578125 240.316406 317.480469 256.25 317.480469 C 272.175781 317.480469 285.078125 304.578125 285.078125 288.660156 C 285.078125 272.742188 272.175781 259.828125 256.25 259.828125 " fill-opacity="1" fill-rule="nonzero"/><path fill="#122d32" d="M 246.5625 289.003906 C 246.5625 294.25 250.816406 298.5 256.0625 298.5 C 261.3125 298.5 265.5625 294.25 265.5625 289.003906 C 265.5625 283.761719 261.3125 279.507812 256.0625 279.507812 C 250.816406 279.507812 246.5625 283.761719 246.5625 289.003906 " fill-opacity="1" fill-rule="nonzero"/><path fill="#0b1b1f" d="M 247.53125 288.328125 C 247.53125 293.042969 251.351562 296.859375 256.0625 296.859375 C 260.769531 296.859375 264.59375 293.042969 264.59375 288.328125 C 264.59375 283.625 260.769531 279.808594 256.0625 279.808594 C 251.351562 279.808594 247.53125 283.625 247.53125 288.328125 " fill-opacity="1" fill-rule="nonzero"/><path fill="#953a1b" d="M 256.074219 297.933594 C 258.917969 297.933594 261.011719 296.671875 262.675781 294.941406 C 262.6875 294.789062 262.699219 294.636719 262.699219 294.480469 L 262.699219 246.359375 L 249.597656 246.359375 L 249.597656 294.480469 C 249.597656 294.691406 249.613281 294.902344 249.628906 295.109375 C 251.289062 296.746094 253.199219 297.933594 256.074219 297.933594 " fill-opacity="1" fill-rule="nonzero"/><path fill="#e9832b" d="M 278.785156 248.140625 C 278.785156 260.53125 268.738281 270.574219 256.34375 270.574219 C 243.949219 270.574219 233.902344 260.53125 233.902344 248.140625 C 233.902344 235.753906 243.949219 225.710938 256.34375 225.710938 C 268.738281 225.710938 278.785156 235.753906 278.785156 248.140625 " fill-opacity="1" fill-rule="nonzero"/><path fill="#d35629" d="M 256.34375 268.15625 C 240.582031 268.15625 235.453125 256.410156 234.078125 245.34375 C 233.960938 246.261719 233.902344 247.195312 233.902344 248.140625 C 233.902344 260.53125 243.949219 270.574219 256.34375 270.574219 C 268.738281 270.574219 278.785156 260.53125 278.785156 248.140625 C 278.785156 247.195312 278.726562 246.261719 278.613281 245.34375 C 277.234375 256.410156 272.109375 268.15625 256.34375 268.15625 " fill-opacity="1" fill-rule="nonzero"/><path fill="#e8a527" d="M 274.242188 242.367188 C 274.242188 251.5625 266.230469 259.019531 256.34375 259.019531 C 246.457031 259.019531 238.441406 251.5625 238.441406 242.367188 C 238.441406 233.167969 246.457031 225.710938 256.34375 225.710938 C 266.230469 225.710938 274.242188 233.167969 274.242188 242.367188 " fill-opacity="1" fill-rule="nonzero"/><path fill="#33888e" d="M 149.066406 231.683594 C 118.324219 231.683594 93.414062 256.59375 93.414062 287.308594 C 93.414062 318.03125 118.324219 342.929688 149.066406 342.929688 C 179.796875 342.929688 204.707031 318.03125 204.707031 287.308594 C 204.707031 256.59375 179.796875 231.683594 149.066406 231.683594 " fill-opacity="1" fill-rule="nonzero"/><path fill="#40aeb3" d="M 149.066406 236.570312 C 121.023438 236.570312 98.300781 259.296875 98.300781 287.308594 C 98.300781 315.332031 121.023438 338.039062 149.066406 338.039062 C 177.097656 338.039062 199.816406 315.332031 199.816406 287.308594 C 199.816406 259.296875 177.097656 236.570312 149.066406 236.570312 " fill-opacity="1" fill-rule="nonzero"/><path fill="#122d32" d="M 101.710938 287.789062 C 101.710938 313.746094 122.75 334.777344 148.703125 334.777344 C 174.664062 334.777344 195.683594 313.746094 195.683594 287.789062 C 195.683594 261.855469 174.664062 240.824219 148.703125 240.824219 C 122.75 240.824219 101.710938 261.855469 101.710938 287.789062 " fill-opacity="1" fill-rule="nonzero"/><path fill="#40aeb3" d="M 103.140625 287.789062 C 103.140625 312.953125 123.535156 333.335938 148.703125 333.335938 C 173.847656 333.335938 194.257812 312.953125 194.257812 287.789062 C 194.257812 262.65625 173.847656 242.257812 148.703125 242.257812 C 123.535156 242.257812 103.140625 262.65625 103.140625 287.789062 " fill-opacity="1" fill-rule="nonzero"/><path fill="#33888e" d="M 161.96875 311.988281 L 135.988281 311.988281 L 135.988281 262.410156 L 161.96875 262.410156 L 161.96875 311.988281 " fill-opacity="1" fill-rule="nonzero"/><path fill="#33888e" d="M 173.960938 300.183594 L 124.003906 300.183594 L 124.003906 274.21875 L 173.960938 274.21875 L 173.960938 300.183594 " fill-opacity="1" fill-rule="nonzero"/><path fill="#33888e" d="M 124.078125 274.21875 C 116.90625 274.21875 111.09375 280.03125 111.09375 287.203125 C 111.09375 294.375 116.90625 300.183594 124.078125 300.183594 C 131.253906 300.183594 137.066406 294.375 137.066406 287.203125 C 137.066406 280.03125 131.253906 274.21875 124.078125 274.21875 " fill-opacity="1" fill-rule="nonzero"/><path fill="#122d32" d="M 124.078125 276.203125 C 118.003906 276.203125 113.078125 281.132812 113.078125 287.203125 C 113.078125 293.273438 118.003906 298.191406 124.078125 298.191406 C 130.152344 298.191406 135.078125 293.273438 135.078125 287.203125 C 135.078125 281.132812 130.152344 276.203125 124.078125 276.203125 " fill-opacity="1" fill-rule="nonzero"/><path fill="#210914" d="M 113.746094 287.300781 C 113.746094 292.964844 118.339844 297.558594 124.003906 297.558594 C 129.667969 297.558594 134.257812 292.964844 134.257812 287.300781 C 134.257812 281.644531 129.667969 277.046875 124.003906 277.046875 C 118.339844 277.046875 113.746094 281.644531 113.746094 287.300781 " fill-opacity="1" fill-rule="nonzero"/><path fill="#692557" d="M 114.367188 287.300781 C 114.367188 292.621094 118.683594 296.9375 124.003906 296.9375 C 129.320312 296.9375 133.636719 292.621094 133.636719 287.300781 C 133.636719 281.984375 129.320312 277.675781 124.003906 277.675781 C 118.683594 277.675781 114.367188 281.984375 114.367188 287.300781 " fill-opacity="1" fill-rule="nonzero"/><path fill="#704376" d="M 129.761719 294.460938 C 133.601562 291.179688 134.054688 285.402344 130.765625 281.558594 C 127.480469 277.722656 121.703125 277.277344 117.863281 280.558594 " fill-opacity="1" fill-rule="nonzero"/><path fill="#33888e" d="M 174.039062 274.21875 C 166.867188 274.21875 161.054688 280.03125 161.054688 287.203125 C 161.054688 294.375 166.867188 300.183594 174.039062 300.183594 C 181.214844 300.183594 187.027344 294.375 187.027344 287.203125 C 187.027344 280.03125 181.214844 274.21875 174.039062 274.21875 " fill-opacity="1" fill-rule="nonzero"/><path fill="#122d32" d="M 174.039062 276.203125 C 167.964844 276.203125 163.039062 281.132812 163.039062 287.203125 C 163.039062 293.273438 167.964844 298.191406 174.039062 298.191406 C 180.113281 298.191406 185.039062 293.273438 185.039062 287.203125 C 185.039062 281.132812 180.113281 276.203125 174.039062 276.203125 " fill-opacity="1" fill-rule="nonzero"/><path fill="#210914" d="M 163.707031 287.300781 C 163.707031 292.964844 168.300781 297.558594 173.96875 297.558594 C 179.628906 297.558594 184.21875 292.964844 184.21875 287.300781 C 184.21875 281.644531 179.628906 277.046875 173.96875 277.046875 C 168.300781 277.046875 163.707031 281.644531 163.707031 287.300781 " fill-opacity="1" fill-rule="nonzero"/><path fill="#692557" d="M 164.328125 287.300781 C 164.328125 292.621094 168.644531 296.9375 173.96875 296.9375 C 179.28125 296.9375 183.597656 292.621094 183.597656 287.300781 C 183.597656 281.984375 179.28125 277.675781 173.96875 277.675781 C 168.644531 277.675781 164.328125 281.984375 164.328125 287.300781 " fill-opacity="1" fill-rule="nonzero"/><path fill="#704376" d="M 179.722656 294.460938 C 183.5625 291.179688 184.015625 285.402344 180.726562 281.558594 C 177.441406 277.722656 171.664062 277.277344 167.824219 280.558594 " fill-opacity="1" fill-rule="nonzero"/><path fill="#33888e" d="M 149.0625 249.429688 C 141.890625 249.429688 136.070312 255.242188 136.070312 262.414062 C 136.070312 269.585938 141.890625 275.394531 149.0625 275.394531 C 156.230469 275.394531 162.046875 269.585938 162.046875 262.414062 C 162.046875 255.242188 156.230469 249.429688 149.0625 249.429688 " fill-opacity="1" fill-rule="nonzero"/><path fill="#122d32" d="M 149.0625 251.414062 C 142.984375 251.414062 138.0625 256.34375 138.0625 262.414062 C 138.0625 268.488281 142.984375 273.40625 149.0625 273.40625 C 155.136719 273.40625 160.058594 268.488281 160.058594 262.414062 C 160.058594 256.34375 155.136719 251.414062 149.0625 251.414062 " fill-opacity="1" fill-rule="nonzero"/><path fill="#210914" d="M 138.722656 262.511719 C 138.722656 268.179688 143.320312 272.769531 148.984375 272.769531 C 154.648438 272.769531 159.238281 268.179688 159.238281 262.511719 C 159.238281 256.855469 154.648438 252.261719 148.984375 252.261719 C 143.320312 252.261719 138.722656 256.855469 138.722656 262.511719 " fill-opacity="1" fill-rule="nonzero"/><path fill="#692557" d="M 139.347656 262.511719 C 139.347656 267.839844 143.660156 272.148438 148.984375 272.148438 C 154.304688 272.148438 158.613281 267.839844 158.613281 262.511719 C 158.613281 257.199219 154.304688 252.882812 148.984375 252.882812 C 143.660156 252.882812 139.347656 257.199219 139.347656 262.511719 " fill-opacity="1" fill-rule="nonzero"/><path fill="#704376" d="M 154.746094 269.671875 C 158.578125 266.390625 159.03125 260.613281 155.742188 256.773438 C 152.460938 252.933594 146.683594 252.488281 142.84375 255.769531 " fill-opacity="1" fill-rule="nonzero"/><path fill="#33888e" d="M 149.0625 299.007812 C 141.890625 299.007812 136.070312 304.820312 136.070312 311.988281 C 136.070312 319.160156 141.890625 324.972656 149.0625 324.972656 C 156.230469 324.972656 162.046875 319.160156 162.046875 311.988281 C 162.046875 304.820312 156.230469 299.007812 149.0625 299.007812 " fill-opacity="1" fill-rule="nonzero"/><path fill="#122d32" d="M 149.0625 300.996094 C 142.984375 300.996094 138.0625 305.917969 138.0625 311.988281 C 138.0625 318.0625 142.984375 322.980469 149.0625 322.980469 C 155.136719 322.980469 160.058594 318.0625 160.058594 311.988281 C 160.058594 305.917969 155.136719 300.996094 149.0625 300.996094 " fill-opacity="1" fill-rule="nonzero"/><path fill="#210914" d="M 138.722656 312.089844 C 138.722656 317.753906 143.320312 322.347656 148.984375 322.347656 C 154.648438 322.347656 159.238281 317.753906 159.238281 312.089844 C 159.238281 306.429688 154.648438 301.835938 148.984375 301.835938 C 143.320312 301.835938 138.722656 306.429688 138.722656 312.089844 " fill-opacity="1" fill-rule="nonzero"/><path fill="#692557" d="M 139.347656 312.089844 C 139.347656 317.410156 143.660156 321.726562 148.984375 321.726562 C 154.304688 321.726562 158.613281 317.410156 158.613281 312.089844 C 158.613281 306.773438 154.304688 302.464844 148.984375 302.464844 C 143.660156 302.464844 139.347656 306.773438 139.347656 312.089844 " fill-opacity="1" fill-rule="nonzero"/><path fill="#704376" d="M 154.746094 319.25 C 158.578125 315.964844 159.03125 310.191406 155.742188 306.347656 C 152.460938 302.515625 146.683594 302.066406 142.84375 305.347656 " fill-opacity="1" fill-rule="nonzero"/><path fill="#194045" d="M 278.304688 26.78125 L 102.542969 26.78125 C 98.378906 26.78125 95.015625 30.105469 95.015625 34.210938 L 95.015625 164.355469 C 95.015625 168.460938 98.390625 171.785156 102.539062 171.785156 L 278.304688 171.785156 C 282.46875 171.785156 285.832031 168.460938 285.832031 164.355469 L 285.832031 34.210938 C 285.832031 30.105469 282.453125 26.78125 278.304688 26.78125 " fill-opacity="1" fill-rule="nonzero"/><path fill="#5a741a" d="M 280.640625 165.886719 L 100.195312 165.886719 L 100.195312 32.683594 L 280.640625 32.683594 L 280.640625 165.886719 " fill-opacity="1" fill-rule="nonzero"/><path fill="#85ac29" d="M 278.984375 164.292969 L 101.859375 164.292969 L 101.859375 34.265625 L 278.984375 34.265625 L 278.984375 164.292969 " fill-opacity="1" fill-rule="nonzero"/><path fill="#9dc320" d="M 101.859375 34.265625 L 101.859375 164.292969 L 278.984375 34.265625 Z M 101.859375 34.265625 " fill-opacity="1" fill-rule="nonzero"/><path fill="#194045" d="M 96.945312 21.160156 C 92.84375 21.160156 89.507812 24.449219 89.507812 28.492188 L 89.507812 170.066406 C 89.507812 174.113281 92.84375 177.398438 96.941406 177.398438 L 283.898438 177.398438 C 288 177.398438 291.335938 174.113281 291.335938 170.066406 L 291.335938 28.492188 C 291.335938 24.449219 288 21.160156 283.902344 21.160156 Z M 283.898438 178.542969 L 96.941406 178.542969 C 92.210938 178.542969 88.363281 174.742188 88.363281 170.066406 L 88.363281 28.492188 C 88.363281 23.820312 92.210938 20.015625 96.945312 20.015625 L 283.902344 20.015625 C 288.632812 20.015625 292.484375 23.820312 292.484375 28.492188 L 292.484375 170.066406 C 292.484375 174.742188 288.632812 178.542969 283.898438 178.542969 " fill-opacity="1" fill-rule="nonzero"/><g clip-path="url(#id2)"><path fill="#000000" d="M 98.898438 33.019531 L 281.886719 33.019531 L 281.886719 165.769531 L 98.898438 165.769531 L 98.898438 33.019531 " fill-opacity="1" fill-rule="nonzero"/></g><g fill="#ff00ff" fill-opacity="1"><g transform="translate(97.83352, 89.685035)"><g><path d="M 2.492188 -28.925781 L 2.492188 -5.984375 L 8.476562 -5.984375 L 8.476562 0 L 20.445312 0 L 20.445312 -5.984375 L 8.476562 -5.984375 L 8.476562 -28.925781 Z M 8.476562 -34.910156 L 8.476562 -28.925781 L 20.445312 -28.925781 L 20.445312 -22.941406 L 26.429688 -22.941406 L 26.429688 -28.925781 L 20.445312 -28.925781 L 20.445312 -34.910156 Z M 26.429688 -5.984375 L 26.429688 -11.96875 L 20.445312 -11.96875 L 20.445312 -5.984375 Z M 26.429688 -5.984375 "/></g></g></g><g fill="#ff00ff" fill-opacity="1"><g transform="translate(132.043616, 89.685035)"><g><path d="M 2.492188 -34.910156 L 2.492188 0 L 8.476562 0 L 8.476562 -14.460938 L 20.445312 -14.460938 L 20.445312 0 L 26.429688 0 L 26.429688 -34.910156 L 20.445312 -34.910156 L 20.445312 -20.445312 L 8.476562 -20.445312 L 8.476562 -34.910156 Z M 2.492188 -34.910156 "/></g></g></g><g fill="#ff00ff" fill-opacity="1"><g transform="translate(166.303586, 89.685035)"><g><path d="M 8.476562 -28.925781 L 20.445312 -28.925781 L 20.445312 -20.445312 L 8.476562 -20.445312 L 8.476562 -28.925781 L 2.492188 -28.925781 L 2.492188 0 L 8.476562 0 L 8.476562 -14.460938 L 20.445312 -14.460938 L 20.445312 0 L 26.429688 0 L 26.429688 -28.925781 L 20.445312 -28.925781 L 20.445312 -34.910156 L 8.476562 -34.910156 Z M 8.476562 -28.925781 "/></g></g></g><g fill="#ff00ff" fill-opacity="1"><g transform="translate(200.513682, 89.685035)"><g><path d="M 22.046875 -36.4375 C 28.253906 -36.4375 33.503906 -33.421875 37.796875 -27.390625 C 39.648438 -24.554688 40.578125 -21.398438 40.578125 -17.921875 C 40.578125 -12.460938 38.003906 -7.679688 32.859375 -3.578125 C 29.703125 -1.191406 26.40625 0 22.96875 0 L 22.1875 0 C 16.019531 0 10.804688 -3.140625 6.546875 -9.421875 C 4.941406 -12.242188 4.140625 -15.101562 4.140625 -18 L 4.140625 -18.671875 C 4.140625 -24.179688 6.882812 -29.03125 12.375 -33.21875 C 15.375 -35.363281 18.597656 -36.4375 22.046875 -36.4375 Z M 30.078125 -32.25 C 27.378906 -33.757812 24.675781 -34.515625 21.96875 -34.515625 C 17.09375 -34.515625 12.75 -32.117188 8.9375 -27.328125 C 6.894531 -24.453125 5.875 -21.441406 5.875 -18.296875 C 5.875 -13.160156 8.132812 -8.757812 12.65625 -5.09375 C 15.550781 -2.851562 18.804688 -1.734375 22.421875 -1.734375 C 27.960938 -1.734375 32.632812 -4.539062 36.4375 -10.15625 C 37.875 -12.59375 38.59375 -15.15625 38.59375 -17.84375 L 38.59375 -18.21875 C 38.582031 -23.820312 35.820312 -28.441406 30.3125 -32.078125 C 30.238281 -32.140625 30.160156 -32.195312 30.078125 -32.25 Z M 22.890625 -2.75 L 22.203125 -2.75 C 19.484375 -2.75 16.976562 -3.472656 14.6875 -4.921875 L 19.78125 -13.859375 C 20.550781 -13.359375 21.394531 -13.109375 22.3125 -13.109375 L 22.5 -13.109375 C 23.3125 -13.109375 24.09375 -13.34375 24.84375 -13.8125 L 30 -4.890625 C 27.707031 -3.460938 25.335938 -2.75 22.890625 -2.75 Z M 19.5625 -22.421875 C 18.007812 -21.242188 17.234375 -19.882812 17.234375 -18.34375 L 17.234375 -18.21875 L 6.890625 -18.21875 L 6.890625 -18.609375 C 6.890625 -23.285156 9.21875 -27.398438 13.875 -30.953125 C 14.164062 -31.160156 14.46875 -31.363281 14.78125 -31.5625 L 19.890625 -22.640625 C 19.773438 -22.578125 19.664062 -22.503906 19.5625 -22.421875 Z M 35.453125 -26.03125 C 36.992188 -23.675781 37.789062 -21.070312 37.84375 -18.21875 L 27.46875 -18.21875 C 27.457031 -19.175781 27.195312 -20.023438 26.6875 -20.765625 C 26.132812 -21.578125 25.507812 -22.1875 24.8125 -22.59375 L 29.9375 -31.46875 C 31.957031 -30.1875 33.796875 -28.375 35.453125 -26.03125 Z M 22.28125 -22.109375 C 23.613281 -22.109375 24.734375 -21.460938 25.640625 -20.171875 C 26.046875 -19.566406 26.25 -18.890625 26.25 -18.140625 C 26.25 -16.984375 25.695312 -15.96875 24.59375 -15.09375 C 23.925781 -14.59375 23.222656 -14.34375 22.484375 -14.34375 L 22.3125 -14.34375 C 21.007812 -14.34375 19.894531 -15.007812 18.96875 -16.34375 C 18.644531 -16.9375 18.484375 -17.546875 18.484375 -18.171875 L 18.484375 -18.296875 C 18.484375 -19.472656 19.066406 -20.519531 20.234375 -21.4375 C 20.867188 -21.882812 21.550781 -22.109375 22.28125 -22.109375 Z M 22.28125 -22.109375 "/></g></g></g><g fill="#ff00ff" fill-opacity="1"><g transform="translate(250.556137, 89.685035)"><g><path d="M 2.492188 -28.925781 L 2.492188 -20.445312 L 8.476562 -20.445312 L 8.476562 -14.460938 L 20.445312 -14.460938 L 20.445312 -5.984375 L 26.429688 -5.984375 L 26.429688 -14.460938 L 20.445312 -14.460938 L 20.445312 -20.445312 L 8.476562 -20.445312 L 8.476562 -28.925781 Z M 8.476562 -5.984375 L 8.476562 -11.96875 L 2.492188 -11.96875 L 2.492188 -5.984375 L 8.476562 -5.984375 L 8.476562 0 L 20.445312 0 L 20.445312 -5.984375 Z M 8.476562 -34.910156 L 8.476562 -28.925781 L 20.445312 -28.925781 L 20.445312 -22.941406 L 26.429688 -22.941406 L 26.429688 -28.925781 L 20.445312 -28.925781 L 20.445312 -34.910156 Z M 8.476562 -34.910156 "/></g></g></g><g fill="#00ffff" fill-opacity="1"><g transform="translate(101.58393, 90.620117)"><g><path d="M 2.492188 -28.925781 L 2.492188 -5.984375 L 8.476562 -5.984375 L 8.476562 0 L 20.445312 0 L 20.445312 -5.984375 L 8.476562 -5.984375 L 8.476562 -28.925781 Z M 8.476562 -34.910156 L 8.476562 -28.925781 L 20.445312 -28.925781 L 20.445312 -22.941406 L 26.429688 -22.941406 L 26.429688 -28.925781 L 20.445312 -28.925781 L 20.445312 -34.910156 Z M 26.429688 -5.984375 L 26.429688 -11.96875 L 20.445312 -11.96875 L 20.445312 -5.984375 Z M 26.429688 -5.984375 "/></g></g></g><g fill="#00ffff" fill-opacity="1"><g transform="translate(135.794027, 90.620117)"><g><path d="M 2.492188 -34.910156 L 2.492188 0 L 8.476562 0 L 8.476562 -14.460938 L 20.445312 -14.460938 L 20.445312 0 L 26.429688 0 L 26.429688 -34.910156 L 20.445312 -34.910156 L 20.445312 -20.445312 L 8.476562 -20.445312 L 8.476562 -34.910156 Z M 2.492188 -34.910156 "/></g></g></g><g fill="#00ffff" fill-opacity="1"><g transform="translate(170.053996, 90.620117)"><g><path d="M 8.476562 -28.925781 L 20.445312 -28.925781 L 20.445312 -20.445312 L 8.476562 -20.445312 L 8.476562 -28.925781 L 2.492188 -28.925781 L 2.492188 0 L 8.476562 0 L 8.476562 -14.460938 L 20.445312 -14.460938 L 20.445312 0 L 26.429688 0 L 26.429688 -28.925781 L 20.445312 -28.925781 L 20.445312 -34.910156 L 8.476562 -34.910156 Z M 8.476562 -28.925781 "/></g></g></g><g fill="#00ffff" fill-opacity="1"><g transform="translate(204.264092, 90.620117)"><g><path d="M 22.046875 -36.4375 C 28.253906 -36.4375 33.503906 -33.421875 37.796875 -27.390625 C 39.648438 -24.554688 40.578125 -21.398438 40.578125 -17.921875 C 40.578125 -12.460938 38.003906 -7.679688 32.859375 -3.578125 C 29.703125 -1.191406 26.40625 0 22.96875 0 L 22.1875 0 C 16.019531 0 10.804688 -3.140625 6.546875 -9.421875 C 4.941406 -12.242188 4.140625 -15.101562 4.140625 -18 L 4.140625 -18.671875 C 4.140625 -24.179688 6.882812 -29.03125 12.375 -33.21875 C 15.375 -35.363281 18.597656 -36.4375 22.046875 -36.4375 Z M 30.078125 -32.25 C 27.378906 -33.757812 24.675781 -34.515625 21.96875 -34.515625 C 17.09375 -34.515625 12.75 -32.117188 8.9375 -27.328125 C 6.894531 -24.453125 5.875 -21.441406 5.875 -18.296875 C 5.875 -13.160156 8.132812 -8.757812 12.65625 -5.09375 C 15.550781 -2.851562 18.804688 -1.734375 22.421875 -1.734375 C 27.960938 -1.734375 32.632812 -4.539062 36.4375 -10.15625 C 37.875 -12.59375 38.59375 -15.15625 38.59375 -17.84375 L 38.59375 -18.21875 C 38.582031 -23.820312 35.820312 -28.441406 30.3125 -32.078125 C 30.238281 -32.140625 30.160156 -32.195312 30.078125 -32.25 Z M 22.890625 -2.75 L 22.203125 -2.75 C 19.484375 -2.75 16.976562 -3.472656 14.6875 -4.921875 L 19.78125 -13.859375 C 20.550781 -13.359375 21.394531 -13.109375 22.3125 -13.109375 L 22.5 -13.109375 C 23.3125 -13.109375 24.09375 -13.34375 24.84375 -13.8125 L 30 -4.890625 C 27.707031 -3.460938 25.335938 -2.75 22.890625 -2.75 Z M 19.5625 -22.421875 C 18.007812 -21.242188 17.234375 -19.882812 17.234375 -18.34375 L 17.234375 -18.21875 L 6.890625 -18.21875 L 6.890625 -18.609375 C 6.890625 -23.285156 9.21875 -27.398438 13.875 -30.953125 C 14.164062 -31.160156 14.46875 -31.363281 14.78125 -31.5625 L 19.890625 -22.640625 C 19.773438 -22.578125 19.664062 -22.503906 19.5625 -22.421875 Z M 35.453125 -26.03125 C 36.992188 -23.675781 37.789062 -21.070312 37.84375 -18.21875 L 27.46875 -18.21875 C 27.457031 -19.175781 27.195312 -20.023438 26.6875 -20.765625 C 26.132812 -21.578125 25.507812 -22.1875 24.8125 -22.59375 L 29.9375 -31.46875 C 31.957031 -30.1875 33.796875 -28.375 35.453125 -26.03125 Z M 22.28125 -22.109375 C 23.613281 -22.109375 24.734375 -21.460938 25.640625 -20.171875 C 26.046875 -19.566406 26.25 -18.890625 26.25 -18.140625 C 26.25 -16.984375 25.695312 -15.96875 24.59375 -15.09375 C 23.925781 -14.59375 23.222656 -14.34375 22.484375 -14.34375 L 22.3125 -14.34375 C 21.007812 -14.34375 19.894531 -15.007812 18.96875 -16.34375 C 18.644531 -16.9375 18.484375 -17.546875 18.484375 -18.171875 L 18.484375 -18.296875 C 18.484375 -19.472656 19.066406 -20.519531 20.234375 -21.4375 C 20.867188 -21.882812 21.550781 -22.109375 22.28125 -22.109375 Z M 22.28125 -22.109375 "/></g></g></g><g fill="#00ffff" fill-opacity="1"><g transform="translate(254.306547, 90.620117)"><g><path d="M 2.492188 -28.925781 L 2.492188 -20.445312 L 8.476562 -20.445312 L 8.476562 -14.460938 L 20.445312 -14.460938 L 20.445312 -5.984375 L 26.429688 -5.984375 L 26.429688 -14.460938 L 20.445312 -14.460938 L 20.445312 -20.445312 L 8.476562 -20.445312 L 8.476562 -28.925781 Z M 8.476562 -5.984375 L 8.476562 -11.96875 L 2.492188 -11.96875 L 2.492188 -5.984375 L 8.476562 -5.984375 L 8.476562 0 L 20.445312 0 L 20.445312 -5.984375 Z M 8.476562 -34.910156 L 8.476562 -28.925781 L 20.445312 -28.925781 L 20.445312 -22.941406 L 26.429688 -22.941406 L 26.429688 -28.925781 L 20.445312 -28.925781 L 20.445312 -34.910156 Z M 8.476562 -34.910156 "/></g></g></g><g fill="#ffc107" fill-opacity="1"><g transform="translate(99.708726, 90.152576)"><g><path d="M 2.492188 -28.925781 L 2.492188 -5.984375 L 8.476562 -5.984375 L 8.476562 0 L 20.445312 0 L 20.445312 -5.984375 L 8.476562 -5.984375 L 8.476562 -28.925781 Z M 8.476562 -34.910156 L 8.476562 -28.925781 L 20.445312 -28.925781 L 20.445312 -22.941406 L 26.429688 -22.941406 L 26.429688 -28.925781 L 20.445312 -28.925781 L 20.445312 -34.910156 Z M 26.429688 -5.984375 L 26.429688 -11.96875 L 20.445312 -11.96875 L 20.445312 -5.984375 Z M 26.429688 -5.984375 "/></g></g></g><g fill="#ffc107" fill-opacity="1"><g transform="translate(133.918823, 90.152576)"><g><path d="M 2.492188 -34.910156 L 2.492188 0 L 8.476562 0 L 8.476562 -14.460938 L 20.445312 -14.460938 L 20.445312 0 L 26.429688 0 L 26.429688 -34.910156 L 20.445312 -34.910156 L 20.445312 -20.445312 L 8.476562 -20.445312 L 8.476562 -34.910156 Z M 2.492188 -34.910156 "/></g></g></g><g fill="#ffc107" fill-opacity="1"><g transform="translate(168.178792, 90.152576)"><g><path d="M 8.476562 -28.925781 L 20.445312 -28.925781 L 20.445312 -20.445312 L 8.476562 -20.445312 L 8.476562 -28.925781 L 2.492188 -28.925781 L 2.492188 0 L 8.476562 0 L 8.476562 -14.460938 L 20.445312 -14.460938 L 20.445312 0 L 26.429688 0 L 26.429688 -28.925781 L 20.445312 -28.925781 L 20.445312 -34.910156 L 8.476562 -34.910156 Z M 8.476562 -28.925781 "/></g></g></g><g fill="#ffc107" fill-opacity="1"><g transform="translate(202.388888, 90.152576)"><g><path d="M 22.046875 -36.4375 C 28.253906 -36.4375 33.503906 -33.421875 37.796875 -27.390625 C 39.648438 -24.554688 40.578125 -21.398438 40.578125 -17.921875 C 40.578125 -12.460938 38.003906 -7.679688 32.859375 -3.578125 C 29.703125 -1.191406 26.40625 0 22.96875 0 L 22.1875 0 C 16.019531 0 10.804688 -3.140625 6.546875 -9.421875 C 4.941406 -12.242188 4.140625 -15.101562 4.140625 -18 L 4.140625 -18.671875 C 4.140625 -24.179688 6.882812 -29.03125 12.375 -33.21875 C 15.375 -35.363281 18.597656 -36.4375 22.046875 -36.4375 Z M 30.078125 -32.25 C 27.378906 -33.757812 24.675781 -34.515625 21.96875 -34.515625 C 17.09375 -34.515625 12.75 -32.117188 8.9375 -27.328125 C 6.894531 -24.453125 5.875 -21.441406 5.875 -18.296875 C 5.875 -13.160156 8.132812 -8.757812 12.65625 -5.09375 C 15.550781 -2.851562 18.804688 -1.734375 22.421875 -1.734375 C 27.960938 -1.734375 32.632812 -4.539062 36.4375 -10.15625 C 37.875 -12.59375 38.59375 -15.15625 38.59375 -17.84375 L 38.59375 -18.21875 C 38.582031 -23.820312 35.820312 -28.441406 30.3125 -32.078125 C 30.238281 -32.140625 30.160156 -32.195312 30.078125 -32.25 Z M 22.890625 -2.75 L 22.203125 -2.75 C 19.484375 -2.75 16.976562 -3.472656 14.6875 -4.921875 L 19.78125 -13.859375 C 20.550781 -13.359375 21.394531 -13.109375 22.3125 -13.109375 L 22.5 -13.109375 C 23.3125 -13.109375 24.09375 -13.34375 24.84375 -13.8125 L 30 -4.890625 C 27.707031 -3.460938 25.335938 -2.75 22.890625 -2.75 Z M 19.5625 -22.421875 C 18.007812 -21.242188 17.234375 -19.882812 17.234375 -18.34375 L 17.234375 -18.21875 L 6.890625 -18.21875 L 6.890625 -18.609375 C 6.890625 -23.285156 9.21875 -27.398438 13.875 -30.953125 C 14.164062 -31.160156 14.46875 -31.363281 14.78125 -31.5625 L 19.890625 -22.640625 C 19.773438 -22.578125 19.664062 -22.503906 19.5625 -22.421875 Z M 35.453125 -26.03125 C 36.992188 -23.675781 37.789062 -21.070312 37.84375 -18.21875 L 27.46875 -18.21875 C 27.457031 -19.175781 27.195312 -20.023438 26.6875 -20.765625 C 26.132812 -21.578125 25.507812 -22.1875 24.8125 -22.59375 L 29.9375 -31.46875 C 31.957031 -30.1875 33.796875 -28.375 35.453125 -26.03125 Z M 22.28125 -22.109375 C 23.613281 -22.109375 24.734375 -21.460938 25.640625 -20.171875 C 26.046875 -19.566406 26.25 -18.890625 26.25 -18.140625 C 26.25 -16.984375 25.695312 -15.96875 24.59375 -15.09375 C 23.925781 -14.59375 23.222656 -14.34375 22.484375 -14.34375 L 22.3125 -14.34375 C 21.007812 -14.34375 19.894531 -15.007812 18.96875 -16.34375 C 18.644531 -16.9375 18.484375 -17.546875 18.484375 -18.171875 L 18.484375 -18.296875 C 18.484375 -19.472656 19.066406 -20.519531 20.234375 -21.4375 C 20.867188 -21.882812 21.550781 -22.109375 22.28125 -22.109375 Z M 22.28125 -22.109375 "/></g></g></g><g fill="#ffc107" fill-opacity="1"><g transform="translate(252.431343, 90.152576)"><g><path d="M 2.492188 -28.925781 L 2.492188 -20.445312 L 8.476562 -20.445312 L 8.476562 -14.460938 L 20.445312 -14.460938 L 20.445312 -5.984375 L 26.429688 -5.984375 L 26.429688 -14.460938 L 20.445312 -14.460938 L 20.445312 -20.445312 L 8.476562 -20.445312 L 8.476562 -28.925781 Z M 8.476562 -5.984375 L 8.476562 -11.96875 L 2.492188 -11.96875 L 2.492188 -5.984375 L 8.476562 -5.984375 L 8.476562 0 L 20.445312 0 L 20.445312 -5.984375 Z M 8.476562 -34.910156 L 8.476562 -28.925781 L 20.445312 -28.925781 L 20.445312 -22.941406 L 26.429688 -22.941406 L 26.429688 -28.925781 L 20.445312 -28.925781 L 20.445312 -34.910156 Z M 8.476562 -34.910156 "/></g></g></g><g fill="#ff00ff" fill-opacity="1"><g transform="translate(111.776956, 134.415014)"><g><path d="M 2.492188 -28.925781 L 2.492188 -5.984375 L 8.476562 -5.984375 L 8.476562 0 L 20.445312 0 L 20.445312 -5.984375 L 8.476562 -5.984375 L 8.476562 -28.925781 Z M 8.476562 -34.910156 L 8.476562 -28.925781 L 20.445312 -28.925781 L 20.445312 -22.941406 L 26.429688 -22.941406 L 26.429688 -28.925781 L 20.445312 -28.925781 L 20.445312 -34.910156 Z M 26.429688 -5.984375 L 26.429688 -11.96875 L 20.445312 -11.96875 L 20.445312 -5.984375 Z M 26.429688 -5.984375 "/></g></g></g><g fill="#ff00ff" fill-opacity="1"><g transform="translate(145.987053, 134.415014)"><g><path d="M 28.726562 -16.757812 L 20.996094 -16.757812 L 22.191406 -20.347656 C 23.089844 -23.238281 23.839844 -25.933594 24.734375 -28.773438 L 24.933594 -28.773438 C 25.832031 -25.980469 26.628906 -23.238281 27.527344 -20.347656 Z M 22.542969 -32.167969 L 13.316406 -6.332031 L 17.503906 -6.332031 L 19.949219 -13.566406 L 29.773438 -13.566406 L 32.117188 -6.332031 L 36.503906 -6.332031 L 27.277344 -32.167969 Z M 24.933594 2.691406 C 12.964844 2.691406 3.292969 -6.980469 3.292969 -18.949219 C 3.292969 -30.820312 12.867188 -40.59375 24.933594 -40.59375 C 36.902344 -40.59375 46.578125 -30.917969 46.578125 -18.949219 C 46.578125 -6.980469 36.902344 2.691406 24.933594 2.691406 Z M 24.933594 -42.191406 C 12.117188 -42.191406 1.695312 -31.765625 1.695312 -18.949219 C 1.695312 -6.132812 12.117188 4.289062 24.933594 4.289062 C 37.652344 4.289062 48.175781 -6.035156 48.175781 -18.949219 C 48.175781 -31.765625 37.75 -42.191406 24.933594 -42.191406 Z M 24.933594 -42.191406 "/></g></g></g><g fill="#ff00ff" fill-opacity="1"><g transform="translate(201.19161, 134.415014)"><g><path d="M 8.476562 -28.925781 L 20.445312 -28.925781 L 20.445312 -20.445312 L 26.429688 -20.445312 L 26.429688 -28.925781 L 20.445312 -28.925781 L 20.445312 -34.910156 L 2.492188 -34.910156 L 2.492188 0 L 8.476562 0 L 8.476562 -14.460938 L 20.445312 -14.460938 L 20.445312 0 L 26.429688 0 L 26.429688 -14.460938 L 20.445312 -14.460938 L 20.445312 -20.445312 L 8.476562 -20.445312 Z M 8.476562 -28.925781 "/></g></g></g><g fill="#ff00ff" fill-opacity="1"><g transform="translate(235.401707, 134.415014)"><g><path d="M 8.476562 -28.925781 L 20.445312 -28.925781 L 20.445312 -5.984375 L 26.429688 -5.984375 L 26.429688 -28.925781 L 20.445312 -28.925781 L 20.445312 -34.910156 L 2.492188 -34.910156 L 2.492188 0 L 20.445312 0 L 20.445312 -5.984375 L 8.476562 -5.984375 Z M 8.476562 -28.925781 "/></g></g></g><g fill="#00ffff" fill-opacity="1"><g transform="translate(116.737165, 135.651737)"><g><path d="M 2.492188 -28.925781 L 2.492188 -5.984375 L 8.476562 -5.984375 L 8.476562 0 L 20.445312 0 L 20.445312 -5.984375 L 8.476562 -5.984375 L 8.476562 -28.925781 Z M 8.476562 -34.910156 L 8.476562 -28.925781 L 20.445312 -28.925781 L 20.445312 -22.941406 L 26.429688 -22.941406 L 26.429688 -28.925781 L 20.445312 -28.925781 L 20.445312 -34.910156 Z M 26.429688 -5.984375 L 26.429688 -11.96875 L 20.445312 -11.96875 L 20.445312 -5.984375 Z M 26.429688 -5.984375 "/></g></g></g><g fill="#00ffff" fill-opacity="1"><g transform="translate(150.947262, 135.651737)"><g><path d="M 28.726562 -16.757812 L 20.996094 -16.757812 L 22.191406 -20.347656 C 23.089844 -23.238281 23.839844 -25.933594 24.734375 -28.773438 L 24.933594 -28.773438 C 25.832031 -25.980469 26.628906 -23.238281 27.527344 -20.347656 Z M 22.542969 -32.167969 L 13.316406 -6.332031 L 17.503906 -6.332031 L 19.949219 -13.566406 L 29.773438 -13.566406 L 32.117188 -6.332031 L 36.503906 -6.332031 L 27.277344 -32.167969 Z M 24.933594 2.691406 C 12.964844 2.691406 3.292969 -6.980469 3.292969 -18.949219 C 3.292969 -30.820312 12.867188 -40.59375 24.933594 -40.59375 C 36.902344 -40.59375 46.578125 -30.917969 46.578125 -18.949219 C 46.578125 -6.980469 36.902344 2.691406 24.933594 2.691406 Z M 24.933594 -42.191406 C 12.117188 -42.191406 1.695312 -31.765625 1.695312 -18.949219 C 1.695312 -6.132812 12.117188 4.289062 24.933594 4.289062 C 37.652344 4.289062 48.175781 -6.035156 48.175781 -18.949219 C 48.175781 -31.765625 37.75 -42.191406 24.933594 -42.191406 Z M 24.933594 -42.191406 "/></g></g></g><g fill="#00ffff" fill-opacity="1"><g transform="translate(206.151819, 135.651737)"><g><path d="M 8.476562 -28.925781 L 20.445312 -28.925781 L 20.445312 -20.445312 L 26.429688 -20.445312 L 26.429688 -28.925781 L 20.445312 -28.925781 L 20.445312 -34.910156 L 2.492188 -34.910156 L 2.492188 0 L 8.476562 0 L 8.476562 -14.460938 L 20.445312 -14.460938 L 20.445312 0 L 26.429688 0 L 26.429688 -14.460938 L 20.445312 -14.460938 L 20.445312 -20.445312 L 8.476562 -20.445312 Z M 8.476562 -28.925781 "/></g></g></g><g fill="#00ffff" fill-opacity="1"><g transform="translate(240.361916, 135.651737)"><g><path d="M 8.476562 -28.925781 L 20.445312 -28.925781 L 20.445312 -5.984375 L 26.429688 -5.984375 L 26.429688 -28.925781 L 20.445312 -28.925781 L 20.445312 -34.910156 L 2.492188 -34.910156 L 2.492188 0 L 20.445312 0 L 20.445312 -5.984375 L 8.476562 -5.984375 Z M 8.476562 -28.925781 "/></g></g></g><g fill="#ffc107" fill-opacity="1"><g transform="translate(114.257061, 135.033374)"><g><path d="M 2.492188 -28.925781 L 2.492188 -5.984375 L 8.476562 -5.984375 L 8.476562 0 L 20.445312 0 L 20.445312 -5.984375 L 8.476562 -5.984375 L 8.476562 -28.925781 Z M 8.476562 -34.910156 L 8.476562 -28.925781 L 20.445312 -28.925781 L 20.445312 -22.941406 L 26.429688 -22.941406 L 26.429688 -28.925781 L 20.445312 -28.925781 L 20.445312 -34.910156 Z M 26.429688 -5.984375 L 26.429688 -11.96875 L 20.445312 -11.96875 L 20.445312 -5.984375 Z M 26.429688 -5.984375 "/></g></g></g><g fill="#ffc107" fill-opacity="1"><g transform="translate(148.467158, 135.033374)"><g><path d="M 28.726562 -16.757812 L 20.996094 -16.757812 L 22.191406 -20.347656 C 23.089844 -23.238281 23.839844 -25.933594 24.734375 -28.773438 L 24.933594 -28.773438 C 25.832031 -25.980469 26.628906 -23.238281 27.527344 -20.347656 Z M 22.542969 -32.167969 L 13.316406 -6.332031 L 17.503906 -6.332031 L 19.949219 -13.566406 L 29.773438 -13.566406 L 32.117188 -6.332031 L 36.503906 -6.332031 L 27.277344 -32.167969 Z M 24.933594 2.691406 C 12.964844 2.691406 3.292969 -6.980469 3.292969 -18.949219 C 3.292969 -30.820312 12.867188 -40.59375 24.933594 -40.59375 C 36.902344 -40.59375 46.578125 -30.917969 46.578125 -18.949219 C 46.578125 -6.980469 36.902344 2.691406 24.933594 2.691406 Z M 24.933594 -42.191406 C 12.117188 -42.191406 1.695312 -31.765625 1.695312 -18.949219 C 1.695312 -6.132812 12.117188 4.289062 24.933594 4.289062 C 37.652344 4.289062 48.175781 -6.035156 48.175781 -18.949219 C 48.175781 -31.765625 37.75 -42.191406 24.933594 -42.191406 Z M 24.933594 -42.191406 "/></g></g></g><g fill="#ffc107" fill-opacity="1"><g transform="translate(203.671714, 135.033374)"><g><path d="M 8.476562 -28.925781 L 20.445312 -28.925781 L 20.445312 -20.445312 L 26.429688 -20.445312 L 26.429688 -28.925781 L 20.445312 -28.925781 L 20.445312 -34.910156 L 2.492188 -34.910156 L 2.492188 0 L 8.476562 0 L 8.476562 -14.460938 L 20.445312 -14.460938 L 20.445312 0 L 26.429688 0 L 26.429688 -14.460938 L 20.445312 -14.460938 L 20.445312 -20.445312 L 8.476562 -20.445312 Z M 8.476562 -28.925781 "/></g></g></g><g fill="#ffc107" fill-opacity="1"><g transform="translate(237.881811, 135.033374)"><g><path d="M 8.476562 -28.925781 L 20.445312 -28.925781 L 20.445312 -5.984375 L 26.429688 -5.984375 L 26.429688 -28.925781 L 20.445312 -28.925781 L 20.445312 -34.910156 L 2.492188 -34.910156 L 2.492188 0 L 20.445312 0 L 20.445312 -5.984375 L 8.476562 -5.984375 Z M 8.476562 -28.925781 "/></g></g></g></svg>