<svg xmlns="http://www.w3.org/2000/svg" xmlns:xlink="http://www.w3.org/1999/xlink" width="500" zoomAndPan="magnify" viewBox="0 0 375 374.999991" height="500" preserveAspectRatio="xMidYMid meet" version="1.0"><defs><g/><clipPath id="id1"><path d="M 71.652344 71.652344 L 303.402344 71.652344 L 303.402344 303.402344 L 71.652344 303.402344 Z M 71.652344 71.652344 " clip-rule="nonzero"/></clipPath><clipPath id="id2"><path d="M 171.71875 159.445312 L 203.21875 159.445312 L 203.21875 215.695312 L 171.71875 215.695312 Z M 171.71875 159.445312 " clip-rule="nonzero"/></clipPath></defs><g clip-path="url(#id1)"><path fill="#ffc107" d="M 303.402344 187.527344 C 303.402344 189.425781 303.355469 191.320312 303.265625 193.214844 C 303.171875 195.109375 303.03125 197 302.847656 198.886719 C 302.660156 200.773438 302.429688 202.65625 302.148438 204.53125 C 301.871094 206.40625 301.546875 208.273438 301.175781 210.136719 C 300.808594 211.996094 300.390625 213.84375 299.929688 215.683594 C 299.46875 217.523438 298.964844 219.351562 298.414062 221.164062 C 297.863281 222.980469 297.269531 224.78125 296.628906 226.566406 C 295.992188 228.351562 295.308594 230.121094 294.582031 231.871094 C 293.859375 233.625 293.089844 235.359375 292.277344 237.070312 C 291.46875 238.785156 290.617188 240.480469 289.722656 242.152344 C 288.828125 243.824219 287.894531 245.472656 286.917969 247.101562 C 285.941406 248.726562 284.929688 250.328125 283.875 251.90625 C 282.820312 253.480469 281.730469 255.03125 280.601562 256.554688 C 279.472656 258.078125 278.304688 259.574219 277.101562 261.039062 C 275.898438 262.503906 274.660156 263.941406 273.386719 265.347656 C 272.113281 266.75 270.804688 268.125 269.464844 269.464844 C 268.125 270.804688 266.75 272.113281 265.347656 273.386719 C 263.941406 274.660156 262.503906 275.898438 261.039062 277.101562 C 259.574219 278.304688 258.078125 279.472656 256.554688 280.601562 C 255.03125 281.730469 253.480469 282.820312 251.90625 283.875 C 250.328125 284.929688 248.726562 285.941406 247.101562 286.917969 C 245.472656 287.894531 243.824219 288.828125 242.152344 289.722656 C 240.480469 290.617188 238.785156 291.46875 237.070312 292.277344 C 235.359375 293.089844 233.625 293.859375 231.871094 294.582031 C 230.121094 295.308594 228.351562 295.992188 226.566406 296.628906 C 224.78125 297.269531 222.980469 297.863281 221.164062 298.414062 C 219.351562 298.964844 217.523438 299.46875 215.683594 299.929688 C 213.84375 300.390625 211.996094 300.808594 210.136719 301.175781 C 208.273438 301.546875 206.40625 301.871094 204.53125 302.148438 C 202.65625 302.429688 200.773438 302.660156 198.886719 302.847656 C 197 303.03125 195.109375 303.171875 193.214844 303.265625 C 191.320312 303.355469 189.425781 303.402344 187.527344 303.402344 C 185.632812 303.402344 183.738281 303.355469 181.84375 303.265625 C 179.949219 303.171875 178.058594 303.03125 176.171875 302.847656 C 174.285156 302.660156 172.402344 302.429688 170.527344 302.148438 C 168.652344 301.871094 166.78125 301.546875 164.921875 301.175781 C 163.0625 300.808594 161.214844 300.390625 159.375 299.929688 C 157.535156 299.46875 155.707031 298.964844 153.890625 298.414062 C 152.078125 297.863281 150.277344 297.269531 148.492188 296.628906 C 146.707031 295.992188 144.9375 295.308594 143.183594 294.582031 C 141.433594 293.859375 139.699219 293.089844 137.984375 292.277344 C 136.273438 291.46875 134.578125 290.617188 132.90625 289.722656 C 131.234375 288.828125 129.582031 287.894531 127.957031 286.917969 C 126.332031 285.941406 124.730469 284.929688 123.152344 283.875 C 121.574219 282.820312 120.027344 281.730469 118.503906 280.601562 C 116.980469 279.472656 115.484375 278.304688 114.019531 277.101562 C 112.550781 275.898438 111.117188 274.660156 109.710938 273.386719 C 108.308594 272.113281 106.933594 270.804688 105.59375 269.464844 C 104.253906 268.125 102.945312 266.75 101.671875 265.347656 C 100.398438 263.941406 99.160156 262.503906 97.957031 261.039062 C 96.753906 259.574219 95.585938 258.078125 94.457031 256.554688 C 93.328125 255.03125 92.234375 253.480469 91.183594 251.90625 C 90.128906 250.328125 89.113281 248.726562 88.140625 247.101562 C 87.164062 245.472656 86.230469 243.824219 85.335938 242.152344 C 84.441406 240.480469 83.589844 238.785156 82.777344 237.070312 C 81.96875 235.359375 81.199219 233.625 80.472656 231.871094 C 79.75 230.121094 79.066406 228.351562 78.425781 226.566406 C 77.789062 224.78125 77.195312 222.980469 76.644531 221.164062 C 76.09375 219.351562 75.585938 217.523438 75.125 215.683594 C 74.664062 213.84375 74.25 211.996094 73.878906 210.136719 C 73.511719 208.273438 73.1875 206.40625 72.90625 204.53125 C 72.628906 202.65625 72.398438 200.773438 72.210938 198.886719 C 72.027344 197 71.886719 195.109375 71.792969 193.214844 C 71.699219 191.320312 71.652344 189.425781 71.652344 187.527344 C 71.652344 185.632812 71.699219 183.738281 71.792969 181.84375 C 71.886719 179.949219 72.027344 178.058594 72.210938 176.171875 C 72.398438 174.285156 72.628906 172.402344 72.90625 170.527344 C 73.1875 168.652344 73.511719 166.78125 73.878906 164.921875 C 74.25 163.0625 74.664062 161.214844 75.125 159.375 C 75.585938 157.535156 76.09375 155.707031 76.644531 153.890625 C 77.195312 152.078125 77.789062 150.277344 78.425781 148.492188 C 79.066406 146.707031 79.75 144.9375 80.472656 143.183594 C 81.199219 141.433594 81.96875 139.699219 82.777344 137.984375 C 83.589844 136.273438 84.441406 134.578125 85.335938 132.90625 C 86.230469 131.234375 87.164062 129.582031 88.140625 127.957031 C 89.113281 126.332031 90.128906 124.730469 91.183594 123.152344 C 92.234375 121.574219 93.328125 120.027344 94.457031 118.503906 C 95.585938 116.980469 96.753906 115.484375 97.957031 114.019531 C 99.160156 112.550781 100.398438 111.117188 101.671875 109.710938 C 102.945312 108.308594 104.253906 106.933594 105.59375 105.59375 C 106.933594 104.253906 108.308594 102.945312 109.710938 101.671875 C 111.117188 100.398438 112.550781 99.160156 114.019531 97.957031 C 115.484375 96.753906 116.980469 95.585938 118.503906 94.457031 C 120.027344 93.328125 121.574219 92.234375 123.152344 91.183594 C 124.730469 90.128906 126.332031 89.113281 127.957031 88.140625 C 129.582031 87.164062 131.234375 86.230469 132.90625 85.335938 C 134.578125 84.441406 136.273438 83.589844 137.984375 82.777344 C 139.699219 81.96875 141.433594 81.199219 143.183594 80.472656 C 144.9375 79.75 146.707031 79.066406 148.492188 78.425781 C 150.277344 77.789062 152.078125 77.195312 153.890625 76.644531 C 155.707031 76.09375 157.535156 75.585938 159.375 75.125 C 161.214844 74.664062 163.0625 74.25 164.921875 73.878906 C 166.78125 73.511719 168.652344 73.1875 170.527344 72.90625 C 172.402344 72.628906 174.285156 72.398438 176.171875 72.210938 C 178.058594 72.027344 179.949219 71.886719 181.84375 71.792969 C 183.738281 71.699219 185.632812 71.652344 187.527344 71.652344 C 189.425781 71.652344 191.320312 71.699219 193.214844 71.792969 C 195.109375 71.886719 197 72.027344 198.886719 72.210938 C 200.773438 72.398438 202.65625 72.628906 204.53125 72.90625 C 206.40625 73.1875 208.273438 73.511719 210.136719 73.878906 C 211.996094 74.25 213.84375 74.664062 215.683594 75.125 C 217.523438 75.585938 219.351562 76.09375 221.164062 76.644531 C 222.980469 77.195312 224.78125 77.789062 226.566406 78.425781 C 228.351562 79.066406 230.121094 79.75 231.871094 80.472656 C 233.625 81.199219 235.359375 81.96875 237.070312 82.777344 C 238.785156 83.589844 240.480469 84.441406 242.152344 85.335938 C 243.824219 86.230469 245.472656 87.164062 247.101562 88.140625 C 248.726562 89.113281 250.328125 90.128906 251.90625 91.183594 C 253.480469 92.234375 255.03125 93.328125 256.554688 94.457031 C 258.078125 95.585938 259.574219 96.753906 261.039062 97.957031 C 262.503906 99.160156 263.941406 100.398438 265.347656 101.671875 C 266.75 102.945312 268.125 104.253906 269.464844 105.59375 C 270.804688 106.933594 272.113281 108.308594 273.386719 109.710938 C 274.660156 111.117188 275.898438 112.550781 277.101562 114.019531 C 278.304688 115.484375 279.472656 116.980469 280.601562 118.503906 C 281.730469 120.027344 282.820312 121.574219 283.875 123.152344 C 284.929688 124.730469 285.941406 126.332031 286.917969 127.957031 C 287.894531 129.582031 288.828125 131.234375 289.722656 132.90625 C 290.617188 134.578125 291.46875 136.273438 292.277344 137.984375 C 293.089844 139.699219 293.859375 141.433594 294.582031 143.183594 C 295.308594 144.9375 295.992188 146.707031 296.628906 148.492188 C 297.269531 150.277344 297.863281 152.078125 298.414062 153.890625 C 298.964844 155.707031 299.46875 157.535156 299.929688 159.375 C 300.390625 161.214844 300.808594 163.0625 301.175781 164.921875 C 301.546875 166.78125 301.871094 168.652344 302.148438 170.527344 C 302.429688 172.402344 302.660156 174.285156 302.847656 176.171875 C 303.03125 178.058594 303.171875 179.949219 303.265625 181.84375 C 303.355469 183.738281 303.402344 185.632812 303.402344 187.527344 Z M 303.402344 187.527344 " fill-opacity="1" fill-rule="nonzero"/></g><g fill="#ff0000" fill-opacity="1"><g transform="translate(208.484141, 281.881355)"><g><path d="M 29.546875 -4.125 C 21.492188 -2.6875 14.722656 -3.773438 9.234375 -7.390625 C 3.753906 -11.015625 0.328125 -16.675781 -1.046875 -24.375 C -1.210938 -25.300781 -1.40625 -26.890625 -1.625 -29.140625 L -3.859375 -70.65625 C -4.347656 -79.851562 -2.050781 -87.632812 3.03125 -94 C 8.113281 -100.363281 15.109375 -104.335938 24.015625 -105.921875 C 32.085938 -107.359375 38.878906 -106.296875 44.390625 -102.734375 C 49.910156 -99.179688 53.359375 -93.550781 54.734375 -85.84375 C 54.878906 -85.007812 55.0625 -83.460938 55.28125 -81.203125 L 55.265625 -80.5 C 55.285156 -79.832031 55.125 -79.25 54.78125 -78.75 C 54.4375 -78.257812 53.988281 -77.960938 53.4375 -77.859375 L 32.140625 -73.34375 C 30.742188 -73.101562 30.019531 -73.648438 29.96875 -74.984375 L 29.78125 -78.53125 C 29.6875 -80.144531 29.226562 -81.351562 28.40625 -82.15625 C 27.59375 -82.96875 26.585938 -83.269531 25.390625 -83.0625 C 24.085938 -82.832031 23.078125 -82.171875 22.359375 -81.078125 C 21.640625 -79.992188 21.332031 -78.644531 21.4375 -77.03125 L 23.96875 -31.40625 C 24.039062 -29.894531 24.460938 -28.726562 25.234375 -27.90625 C 26.003906 -27.082031 27.035156 -26.785156 28.328125 -27.015625 C 29.640625 -27.242188 30.65625 -27.878906 31.375 -28.921875 C 32.101562 -29.960938 32.421875 -31.289062 32.328125 -32.90625 L 32.0625 -36.734375 C 32.039062 -37.398438 32.210938 -37.929688 32.578125 -38.328125 C 32.941406 -38.722656 33.398438 -38.972656 33.953125 -39.078125 L 55.359375 -42.171875 C 56.003906 -42.285156 56.523438 -42.164062 56.921875 -41.8125 C 57.316406 -41.457031 57.53125 -40.945312 57.5625 -40.28125 L 57.515625 -39.6875 C 58.003906 -30.5 55.691406 -22.671875 50.578125 -16.203125 C 45.472656 -9.742188 38.460938 -5.71875 29.546875 -4.125 Z M 29.546875 -4.125 "/></g></g></g><g fill="#00ffff" fill-opacity="1"><g transform="translate(219.207998, 277.303456)"><g><path d="M 29.546875 -4.125 C 21.492188 -2.6875 14.722656 -3.773438 9.234375 -7.390625 C 3.753906 -11.015625 0.328125 -16.675781 -1.046875 -24.375 C -1.210938 -25.300781 -1.40625 -26.890625 -1.625 -29.140625 L -3.859375 -70.65625 C -4.347656 -79.851562 -2.050781 -87.632812 3.03125 -94 C 8.113281 -100.363281 15.109375 -104.335938 24.015625 -105.921875 C 32.085938 -107.359375 38.878906 -106.296875 44.390625 -102.734375 C 49.910156 -99.179688 53.359375 -93.550781 54.734375 -85.84375 C 54.878906 -85.007812 55.0625 -83.460938 55.28125 -81.203125 L 55.265625 -80.5 C 55.285156 -79.832031 55.125 -79.25 54.78125 -78.75 C 54.4375 -78.257812 53.988281 -77.960938 53.4375 -77.859375 L 32.140625 -73.34375 C 30.742188 -73.101562 30.019531 -73.648438 29.96875 -74.984375 L 29.78125 -78.53125 C 29.6875 -80.144531 29.226562 -81.351562 28.40625 -82.15625 C 27.59375 -82.96875 26.585938 -83.269531 25.390625 -83.0625 C 24.085938 -82.832031 23.078125 -82.171875 22.359375 -81.078125 C 21.640625 -79.992188 21.332031 -78.644531 21.4375 -77.03125 L 23.96875 -31.40625 C 24.039062 -29.894531 24.460938 -28.726562 25.234375 -27.90625 C 26.003906 -27.082031 27.035156 -26.785156 28.328125 -27.015625 C 29.640625 -27.242188 30.65625 -27.878906 31.375 -28.921875 C 32.101562 -29.960938 32.421875 -31.289062 32.328125 -32.90625 L 32.0625 -36.734375 C 32.039062 -37.398438 32.210938 -37.929688 32.578125 -38.328125 C 32.941406 -38.722656 33.398438 -38.972656 33.953125 -39.078125 L 55.359375 -42.171875 C 56.003906 -42.285156 56.523438 -42.164062 56.921875 -41.8125 C 57.316406 -41.457031 57.53125 -40.945312 57.5625 -40.28125 L 57.515625 -39.6875 C 58.003906 -30.5 55.691406 -22.671875 50.578125 -16.203125 C 45.472656 -9.742188 38.460938 -5.71875 29.546875 -4.125 Z M 29.546875 -4.125 "/></g></g></g><g fill="#191919" fill-opacity="1"><g transform="translate(213.846069, 279.592406)"><g><path d="M 29.546875 -4.125 C 21.492188 -2.6875 14.722656 -3.773438 9.234375 -7.390625 C 3.753906 -11.015625 0.328125 -16.675781 -1.046875 -24.375 C -1.210938 -25.300781 -1.40625 -26.890625 -1.625 -29.140625 L -3.859375 -70.65625 C -4.347656 -79.851562 -2.050781 -87.632812 3.03125 -94 C 8.113281 -100.363281 15.109375 -104.335938 24.015625 -105.921875 C 32.085938 -107.359375 38.878906 -106.296875 44.390625 -102.734375 C 49.910156 -99.179688 53.359375 -93.550781 54.734375 -85.84375 C 54.878906 -85.007812 55.0625 -83.460938 55.28125 -81.203125 L 55.265625 -80.5 C 55.285156 -79.832031 55.125 -79.25 54.78125 -78.75 C 54.4375 -78.257812 53.988281 -77.960938 53.4375 -77.859375 L 32.140625 -73.34375 C 30.742188 -73.101562 30.019531 -73.648438 29.96875 -74.984375 L 29.78125 -78.53125 C 29.6875 -80.144531 29.226562 -81.351562 28.40625 -82.15625 C 27.59375 -82.96875 26.585938 -83.269531 25.390625 -83.0625 C 24.085938 -82.832031 23.078125 -82.171875 22.359375 -81.078125 C 21.640625 -79.992188 21.332031 -78.644531 21.4375 -77.03125 L 23.96875 -31.40625 C 24.039062 -29.894531 24.460938 -28.726562 25.234375 -27.90625 C 26.003906 -27.082031 27.035156 -26.785156 28.328125 -27.015625 C 29.640625 -27.242188 30.65625 -27.878906 31.375 -28.921875 C 32.101562 -29.960938 32.421875 -31.289062 32.328125 -32.90625 L 32.0625 -36.734375 C 32.039062 -37.398438 32.210938 -37.929688 32.578125 -38.328125 C 32.941406 -38.722656 33.398438 -38.972656 33.953125 -39.078125 L 55.359375 -42.171875 C 56.003906 -42.285156 56.523438 -42.164062 56.921875 -41.8125 C 57.316406 -41.457031 57.53125 -40.945312 57.5625 -40.28125 L 57.515625 -39.6875 C 58.003906 -30.5 55.691406 -22.671875 50.578125 -16.203125 C 45.472656 -9.742188 38.460938 -5.71875 29.546875 -4.125 Z M 29.546875 -4.125 "/></g></g></g><g fill="#ff0000" fill-opacity="1"><g transform="translate(94.384569, 225.574942)"><g><path d="M 32.9375 -4.59375 C 23.945312 -2.988281 16.394531 -4.203125 10.28125 -8.234375 C 4.175781 -12.265625 0.359375 -18.570312 -1.171875 -27.15625 C -1.359375 -28.195312 -1.566406 -29.972656 -1.796875 -32.484375 L -4.296875 -78.75 C -4.835938 -89 -2.28125 -97.664062 3.375 -104.75 C 9.039062 -111.84375 16.835938 -116.273438 26.765625 -118.046875 C 35.753906 -119.648438 43.320312 -118.46875 49.46875 -114.5 C 55.625 -110.539062 59.46875 -104.269531 61 -95.6875 C 61.164062 -94.75 61.367188 -93.023438 61.609375 -90.515625 L 61.59375 -89.71875 C 61.613281 -88.96875 61.429688 -88.316406 61.046875 -87.765625 C 60.660156 -87.222656 60.160156 -86.898438 59.546875 -86.796875 L 35.828125 -81.75 C 34.265625 -81.46875 33.457031 -82.070312 33.40625 -83.5625 L 33.1875 -87.515625 C 33.082031 -89.316406 32.570312 -90.664062 31.65625 -91.5625 C 30.75 -92.46875 29.625 -92.800781 28.28125 -92.5625 C 26.832031 -92.300781 25.707031 -91.566406 24.90625 -90.359375 C 24.113281 -89.148438 23.773438 -87.648438 23.890625 -85.859375 L 26.71875 -35 C 26.8125 -33.3125 27.285156 -32.007812 28.140625 -31.09375 C 28.992188 -30.175781 30.144531 -29.847656 31.59375 -30.109375 C 33.039062 -30.367188 34.164062 -31.078125 34.96875 -32.234375 C 35.769531 -33.390625 36.117188 -34.863281 36.015625 -36.65625 L 35.75 -40.921875 C 35.71875 -41.671875 35.898438 -42.269531 36.296875 -42.71875 C 36.703125 -43.164062 37.210938 -43.445312 37.828125 -43.5625 L 61.6875 -47.015625 C 62.414062 -47.140625 63.003906 -47 63.453125 -46.59375 C 63.898438 -46.1875 64.132812 -45.617188 64.15625 -44.890625 L 64.09375 -44.25 C 64.644531 -34 62.070312 -25.269531 56.375 -18.0625 C 50.675781 -10.851562 42.863281 -6.363281 32.9375 -4.59375 Z M 32.9375 -4.59375 "/></g></g></g><g fill="#00ffff" fill-opacity="1"><g transform="translate(106.336485, 220.472804)"><g><path d="M 32.9375 -4.59375 C 23.945312 -2.988281 16.394531 -4.203125 10.28125 -8.234375 C 4.175781 -12.265625 0.359375 -18.570312 -1.171875 -27.15625 C -1.359375 -28.195312 -1.566406 -29.972656 -1.796875 -32.484375 L -4.296875 -78.75 C -4.835938 -89 -2.28125 -97.664062 3.375 -104.75 C 9.039062 -111.84375 16.835938 -116.273438 26.765625 -118.046875 C 35.753906 -119.648438 43.320312 -118.46875 49.46875 -114.5 C 55.625 -110.539062 59.46875 -104.269531 61 -95.6875 C 61.164062 -94.75 61.367188 -93.023438 61.609375 -90.515625 L 61.59375 -89.71875 C 61.613281 -88.96875 61.429688 -88.316406 61.046875 -87.765625 C 60.660156 -87.222656 60.160156 -86.898438 59.546875 -86.796875 L 35.828125 -81.75 C 34.265625 -81.46875 33.457031 -82.070312 33.40625 -83.5625 L 33.1875 -87.515625 C 33.082031 -89.316406 32.570312 -90.664062 31.65625 -91.5625 C 30.75 -92.46875 29.625 -92.800781 28.28125 -92.5625 C 26.832031 -92.300781 25.707031 -91.566406 24.90625 -90.359375 C 24.113281 -89.148438 23.773438 -87.648438 23.890625 -85.859375 L 26.71875 -35 C 26.8125 -33.3125 27.285156 -32.007812 28.140625 -31.09375 C 28.992188 -30.175781 30.144531 -29.847656 31.59375 -30.109375 C 33.039062 -30.367188 34.164062 -31.078125 34.96875 -32.234375 C 35.769531 -33.390625 36.117188 -34.863281 36.015625 -36.65625 L 35.75 -40.921875 C 35.71875 -41.671875 35.898438 -42.269531 36.296875 -42.71875 C 36.703125 -43.164062 37.210938 -43.445312 37.828125 -43.5625 L 61.6875 -47.015625 C 62.414062 -47.140625 63.003906 -47 63.453125 -46.59375 C 63.898438 -46.1875 64.132812 -45.617188 64.15625 -44.890625 L 64.09375 -44.25 C 64.644531 -34 62.070312 -25.269531 56.375 -18.0625 C 50.675781 -10.851562 42.863281 -6.363281 32.9375 -4.59375 Z M 32.9375 -4.59375 "/></g></g></g><g fill="#191919" fill-opacity="1"><g transform="translate(100.360526, 223.023871)"><g><path d="M 32.9375 -4.59375 C 23.945312 -2.988281 16.394531 -4.203125 10.28125 -8.234375 C 4.175781 -12.265625 0.359375 -18.570312 -1.171875 -27.15625 C -1.359375 -28.195312 -1.566406 -29.972656 -1.796875 -32.484375 L -4.296875 -78.75 C -4.835938 -89 -2.28125 -97.664062 3.375 -104.75 C 9.039062 -111.84375 16.835938 -116.273438 26.765625 -118.046875 C 35.753906 -119.648438 43.320312 -118.46875 49.46875 -114.5 C 55.625 -110.539062 59.46875 -104.269531 61 -95.6875 C 61.164062 -94.75 61.367188 -93.023438 61.609375 -90.515625 L 61.59375 -89.71875 C 61.613281 -88.96875 61.429688 -88.316406 61.046875 -87.765625 C 60.660156 -87.222656 60.160156 -86.898438 59.546875 -86.796875 L 35.828125 -81.75 C 34.265625 -81.46875 33.457031 -82.070312 33.40625 -83.5625 L 33.1875 -87.515625 C 33.082031 -89.316406 32.570312 -90.664062 31.65625 -91.5625 C 30.75 -92.46875 29.625 -92.800781 28.28125 -92.5625 C 26.832031 -92.300781 25.707031 -91.566406 24.90625 -90.359375 C 24.113281 -89.148438 23.773438 -87.648438 23.890625 -85.859375 L 26.71875 -35 C 26.8125 -33.3125 27.285156 -32.007812 28.140625 -31.09375 C 28.992188 -30.175781 30.144531 -29.847656 31.59375 -30.109375 C 33.039062 -30.367188 34.164062 -31.078125 34.96875 -32.234375 C 35.769531 -33.390625 36.117188 -34.863281 36.015625 -36.65625 L 35.75 -40.921875 C 35.71875 -41.671875 35.898438 -42.269531 36.296875 -42.71875 C 36.703125 -43.164062 37.210938 -43.445312 37.828125 -43.5625 L 61.6875 -47.015625 C 62.414062 -47.140625 63.003906 -47 63.453125 -46.59375 C 63.898438 -46.1875 64.132812 -45.617188 64.15625 -44.890625 L 64.09375 -44.25 C 64.644531 -34 62.070312 -25.269531 56.375 -18.0625 C 50.675781 -10.851562 42.863281 -6.363281 32.9375 -4.59375 Z M 32.9375 -4.59375 "/></g></g></g><path fill="#c5b5c2" d="M 184 182.082031 L 184 189.046875 C 184 189.046875 173.597656 190.789062 173.597656 197.757812 L 173.597656 206.464844 C 173.597656 206.464844 176.210938 213.429688 187.46875 213.429688 C 198.71875 213.429688 201.339844 206.464844 201.339844 206.464844 L 201.339844 197.757812 C 201.339844 197.757812 201.339844 194.273438 197.871094 192.53125 C 194.402344 190.789062 190.9375 189.046875 190.9375 189.046875 L 190.9375 182.082031 C 190.9375 182.082031 197.871094 179.394531 197.871094 171.632812 C 197.871094 163.871094 192.667969 161.183594 187.46875 161.183594 C 182.265625 161.183594 177.066406 166.410156 177.066406 171.632812 C 177.066406 176.859375 184 182.082031 184 182.082031 " fill-opacity="1" fill-rule="evenodd"/><path fill="#e9595a" d="M 187.46875 161.183594 C 193.210938 161.183594 197.871094 165.863281 197.871094 171.632812 C 197.871094 177.402344 193.210938 182.082031 187.46875 182.082031 C 181.722656 182.082031 177.066406 177.402344 177.066406 171.632812 C 177.066406 165.863281 181.722656 161.183594 187.46875 161.183594 " fill-opacity="1" fill-rule="evenodd"/><path fill="#90798b" d="M 187.46875 182.082031 L 187.46875 199.953125 L 190.46875 198.625 L 190.9375 197.757812 C 190.9375 197.757812 197.003906 197.3125 199.605469 201.238281 C 202.667969 193.785156 196.21875 190.414062 190.9375 189.046875 L 190.9375 182.082031 L 187.46875 182.082031 " fill-opacity="1" fill-rule="evenodd"/><path fill="#90798b" d="M 192.667969 205.59375 L 192.667969 213.429688 C 192.667969 213.429688 197.871094 212.046875 199.605469 209.074219 C 201.339844 206.101562 201.339844 201.238281 201.339844 201.238281 L 192.667969 205.59375 " fill-opacity="1" fill-rule="evenodd"/><path fill="#d51f20" d="M 194.121094 165.539062 C 193.285156 173.914062 188.179688 178.125 178.796875 176.859375 C 178.796875 176.859375 184.257812 185.972656 192.667969 180.339844 C 203.074219 173.375 194.121094 165.539062 194.121094 165.539062 " fill-opacity="1" fill-rule="evenodd"/><path fill="#faf2d7" d="M 185.734375 206.464844 L 185.734375 213.429688 C 182.855469 213.566406 180.226562 212.734375 177.871094 210.886719 C 176.957031 207.757812 177.085938 205.519531 177.871094 203.84375 C 180.167969 205.367188 182.78125 206.257812 185.734375 206.464844 " fill-opacity="1" fill-rule="evenodd"/><path fill="#faf2d7" d="M 177.933594 203.851562 L 185.734375 206.464844 C 185.734375 206.464844 184.867188 201.238281 185.734375 199.496094 L 183.132812 197.757812 C 180.613281 198.996094 178.976562 201.125 177.933594 203.851562 " fill-opacity="1" fill-rule="evenodd"/><path fill="#fde292" d="M 184.867188 165.539062 C 186.777344 165.539062 188.335938 167.097656 188.335938 169.023438 C 188.335938 170.945312 186.777344 172.503906 184.867188 172.503906 C 182.949219 172.503906 181.398438 170.945312 181.398438 169.023438 C 181.398438 167.097656 182.949219 165.539062 184.867188 165.539062 " fill-opacity="1" fill-rule="evenodd"/><g clip-path="url(#id2)"><path fill="#000000" d="M 187.460938 159.445312 C 180.777344 159.445312 175.324219 164.917969 175.324219 171.628906 C 175.324219 176.46875 178.175781 180.667969 182.265625 182.632812 L 182.265625 187.925781 C 179.21875 188.640625 176.609375 189.898438 174.75 191.648438 C 173.074219 193.21875 172 195.265625 171.882812 197.441406 C 171.871094 197.546875 171.855469 197.648438 171.855469 197.75 L 171.855469 204.722656 C 171.855469 208.816406 175.230469 212.191406 179.949219 213.898438 C 184.671875 215.605469 190.273438 215.605469 194.984375 213.898438 C 199.707031 212.191406 203.082031 208.816406 203.082031 204.722656 L 203.082031 197.769531 C 203.074219 197.648438 203.058594 197.523438 203.039062 197.410156 C 202.925781 195.246094 201.847656 193.210938 200.179688 191.648438 C 198.324219 189.898438 195.71875 188.640625 192.667969 187.933594 L 192.667969 182.625 C 196.761719 180.660156 199.613281 176.46875 199.613281 171.628906 C 199.613281 164.917969 194.144531 159.445312 187.460938 159.445312 Z M 187.460938 162.925781 C 192.269531 162.925781 196.136719 166.796875 196.136719 171.628906 C 196.136719 176.464844 192.269531 180.347656 187.460938 180.347656 C 182.652344 180.347656 178.792969 176.464844 178.792969 171.628906 C 178.792969 166.796875 182.652344 162.925781 187.460938 162.925781 Z M 189.203125 183.6875 L 189.203125 197.265625 C 189.175781 197.28125 189.214844 197.246094 189.148438 197.300781 C 188.945312 197.476562 188.539062 197.75 187.460938 197.75 C 186.382812 197.75 185.992188 197.476562 185.78125 197.300781 C 185.722656 197.246094 185.753906 197.28125 185.734375 197.265625 L 185.734375 183.6875 C 186.304688 183.777344 186.871094 183.832031 187.460938 183.832031 C 188.050781 183.832031 188.632812 183.769531 189.203125 183.6875 Z M 182.265625 191.511719 L 182.265625 197.75 C 182.265625 197.945312 182.300781 198.144531 182.367188 198.335938 C 182.367188 198.335938 182.734375 199.253906 183.546875 199.953125 C 184.359375 200.648438 185.679688 201.238281 187.460938 201.238281 C 189.234375 201.238281 190.578125 200.648438 191.390625 199.953125 C 192.210938 199.253906 192.566406 198.335938 192.566406 198.335938 C 192.636719 198.144531 192.667969 197.945312 192.667969 197.75 L 192.667969 191.511719 C 194.863281 192.128906 196.644531 193.089844 197.816406 194.191406 C 199.3125 195.59375 199.835938 197.027344 199.523438 198.539062 C 199.207031 200.046875 197.933594 201.601562 195.777344 202.785156 C 193.632812 203.96875 190.671875 204.722656 187.460938 204.722656 C 184.246094 204.722656 181.304688 203.96875 179.15625 202.785156 C 177.003906 201.601562 175.738281 200.046875 175.417969 198.539062 C 175.101562 197.027344 175.621094 195.59375 177.117188 194.191406 C 178.289062 193.089844 180.070312 192.128906 182.265625 191.511719 Z M 199.613281 204.363281 L 199.613281 204.722656 C 199.613281 206.835938 197.675781 209.21875 193.808594 210.621094 C 189.945312 212.019531 184.988281 212.019531 181.121094 210.621094 C 177.261719 209.21875 175.324219 206.835938 175.324219 204.722656 L 175.324219 204.363281 C 175.988281 204.90625 176.707031 205.394531 177.492188 205.832031 C 180.25 207.347656 183.714844 208.203125 187.460938 208.203125 C 191.207031 208.203125 194.6875 207.347656 197.445312 205.832031 C 198.230469 205.394531 198.949219 204.898438 199.613281 204.363281 " fill-opacity="1" fill-rule="evenodd"/></g></svg>